<?xml version="1.0" encoding="utf-8"?>
<!-- Generator: Adobe Illustrator 21.0.2, SVG Export Plug-In . SVG Version: 6.00 Build 0)  -->
<svg version="1.1" id="Layer_1" xmlns="http://www.w3.org/2000/svg" xmlns:xlink="http://www.w3.org/1999/xlink" x="0px" y="0px"
	 viewBox="0 0 33.9 33.9" style="enable-background:new 0 0 33.9 33.9;" xml:space="preserve">
<style type="text/css">
	.st0{fill:#FFFFFF;}
</style>
<g>
	<path class="st0" d="M16.9,0c2.3,0,4.5,0.4,6.6,1.3c2.1,0.9,3.9,2.1,5.4,3.6c1.5,1.5,2.7,3.3,3.6,5.4c0.9,2.1,1.3,4.3,1.3,6.6
		c0,2.3-0.4,4.5-1.3,6.6c-0.9,2.1-2.1,3.9-3.6,5.4c-1.5,1.5-3.3,2.7-5.4,3.6c-2.1,0.9-4.3,1.3-6.6,1.3c-2.3,0-4.5-0.4-6.6-1.3
		c-2.1-0.9-3.9-2.1-5.4-3.6c-1.5-1.5-2.7-3.3-3.6-5.4S0,19.3,0,16.9c0-2.3,0.4-4.5,1.3-6.6s2.1-3.9,3.6-5.4c1.5-1.5,3.3-2.7,5.4-3.6
		C12.4,0.4,14.6,0,16.9,0z M16.9,31.8c2.1,0,4-0.4,5.8-1.2c1.8-0.8,3.4-1.8,4.7-3.2c1.3-1.3,2.4-2.9,3.2-4.7
		c0.8-1.8,1.2-3.7,1.2-5.8c0-2.1-0.4-4-1.2-5.8c-0.8-1.8-1.8-3.4-3.2-4.7c-1.3-1.3-2.9-2.4-4.7-3.2c-1.8-0.8-3.7-1.2-5.8-1.2
		c-2.1,0-4,0.4-5.8,1.2C9.4,4.1,7.8,5.1,6.5,6.5c-1.3,1.3-2.4,2.9-3.2,4.7c-0.8,1.8-1.2,3.7-1.2,5.8c0,2.1,0.4,4,1.2,5.8
		c0.8,1.8,1.8,3.4,3.2,4.7c1.3,1.3,2.9,2.4,4.7,3.2C13,31.4,14.9,31.8,16.9,31.8z M17.6,10.5c0.2-0.2,0.5-0.3,0.8-0.3
		c0.3,0,0.5,0.1,0.8,0.3l6.3,6.4l-6.3,6.4c-0.1,0.1-0.2,0.2-0.4,0.2c-0.1,0.1-0.3,0.1-0.4,0.1s-0.3,0-0.4-0.1
		c-0.1-0.1-0.3-0.1-0.4-0.2c-0.2-0.2-0.3-0.5-0.3-0.8c0-0.3,0.1-0.5,0.3-0.8l3.9-3.9h-12c-0.3,0-0.6-0.1-0.8-0.3
		c-0.2-0.2-0.3-0.5-0.3-0.7c0-0.3,0.1-0.6,0.3-0.8C9,16,9.2,15.9,9.5,15.9h11.9L17.6,12c-0.2-0.2-0.3-0.4-0.3-0.7
		S17.4,10.7,17.6,10.5z"/>
</g>
</svg>
