<?xml version="1.0" encoding="utf-8"?>
<!-- Generator: Adobe Illustrator 21.0.2, SVG Export Plug-In . SVG Version: 6.00 Build 0)  -->
<svg version="1.1" id="Layer_1" xmlns="http://www.w3.org/2000/svg" xmlns:xlink="http://www.w3.org/1999/xlink" x="0px" y="0px"
	 viewBox="0 0 92.7 92.7" style="enable-background:new 0 0 92.7 92.7;" xml:space="preserve">
<style type="text/css">
	.st0{fill:none;stroke:#D9D8DD;stroke-width:3.8872;stroke-miterlimit:10;}
	.st1{fill:#D9D8DD;}
</style>
<circle class="st0" cx="46.3" cy="46.3" r="43.1"/>
<g>
	<g>
		<path class="st1" d="M35.3,24.6c3.8-2.2,7.9-3.3,12.4-3.3s8.6,1.1,12.4,3.3c3.8,2.2,6.8,5.2,9,9s3.3,7.9,3.3,12.4
			s-1.1,8.6-3.3,12.4c-2.2,3.8-5.2,6.8-9,9s-7.9,3.3-12.4,3.3s-8.6-1.1-12.4-3.3c-3.8-2.2-6.8-5.2-9-9c-2.2-3.8-3.3-8-3.3-12.4
			s1.1-8.6,3.3-12.4C28.5,29.8,31.5,26.8,35.3,24.6z M56.5,38c0,0-0.1,0.1-0.3,0.3s-0.3,0.3-0.4,0.3c0,0,0.1-0.1,0.1-0.2
			c0.1-0.1,0.1-0.2,0.2-0.4c0.1-0.1,0.1-0.2,0.1-0.2c0.1-0.1,0.4-0.3,0.7-0.5c0.3-0.1,0.9-0.3,1.7-0.4c0.7-0.2,1.3-0.1,1.6,0.4
			c0,0,0.1-0.2,0.3-0.4s0.4-0.4,0.5-0.4s0.2-0.1,0.5-0.1c0.3-0.1,0.4-0.1,0.5-0.2l0.1-0.7c-0.3,0-0.4-0.1-0.6-0.2
			c-0.1-0.2-0.2-0.4-0.2-0.7c0,0-0.1,0.1-0.2,0.3c0-0.1,0-0.2-0.1-0.3c-0.1,0-0.2,0-0.4,0c-0.1,0-0.2,0.1-0.3,0
			c-0.2-0.1-0.4-0.1-0.5-0.2s-0.2-0.3-0.3-0.5c-0.1-0.3-0.1-0.4-0.1-0.5s-0.1-0.2-0.3-0.3s-0.3-0.2-0.3-0.3c0,0,0-0.1-0.1-0.2
			c0-0.1-0.1-0.1-0.1-0.2c0-0.1-0.1-0.1-0.1-0.2c-0.1-0.1-0.1-0.1-0.2-0.1s-0.1,0.1-0.2,0.2c-0.1,0.1-0.2,0.2-0.2,0.3
			c-0.1,0.1-0.1,0.2-0.1,0.2c-0.1,0-0.1-0.1-0.2,0c-0.1,0-0.1,0-0.1,0s-0.1,0-0.1,0.1C57.3,33,57.3,33,57.2,33
			c-0.1,0-0.2,0.1-0.3,0.1s-0.2,0-0.3,0.1c0.3-0.1,0.3-0.2,0-0.4c-0.2-0.1-0.4-0.1-0.5-0.1c0.2-0.1,0.3-0.2,0.2-0.4
			c0-0.2-0.1-0.3-0.3-0.4h0c0-0.1-0.1-0.2-0.3-0.3c-0.2-0.1-0.3-0.2-0.6-0.3c-0.2-0.1-0.4-0.1-0.4-0.2c-0.2-0.1-0.5-0.2-1.1-0.3
			c-0.6-0.1-0.9-0.1-1.1,0c-0.1,0.1-0.2,0.2-0.1,0.3c0,0.1,0.1,0.2,0.1,0.4c0.1,0.2,0.1,0.3,0.1,0.4s0,0.3-0.2,0.4
			c-0.1,0.1-0.2,0.3-0.2,0.4c0,0.1,0.1,0.3,0.4,0.5c0.3,0.2,0.4,0.4,0.3,0.7c-0.1,0.2-0.2,0.3-0.5,0.5s-0.4,0.3-0.5,0.4
			c-0.1,0.2-0.1,0.4,0,0.6c0.1,0.2,0.2,0.4,0.3,0.5c0,0,0.1,0.1,0,0.1c0,0,0,0.1-0.1,0.1c-0.1,0.1-0.1,0.1-0.2,0.1
			c-0.1,0-0.1,0.1-0.2,0.1l-0.1,0.1c-0.2,0.1-0.5,0-0.7-0.2s-0.3-0.5-0.4-0.8c-0.1-0.5-0.3-0.9-0.5-1c-0.5-0.2-0.8-0.2-0.9,0
			c-0.1-0.3-0.5-0.6-1.3-0.8c-0.5-0.2-1.2-0.2-1.9-0.1c0.1,0,0.1-0.2,0-0.5s-0.4-0.4-0.6-0.4c0.1-0.1,0.1-0.3,0.1-0.6
			c0-0.2,0-0.4,0-0.4c0.1-0.3,0.2-0.5,0.4-0.7c0,0,0.1-0.1,0.2-0.3c0.1-0.2,0.2-0.3,0.3-0.4s0.1-0.2,0-0.2c0.7,0.1,1.3,0,1.6-0.4
			c0.1-0.1,0.2-0.3,0.4-0.5c0.1-0.3,0.3-0.4,0.3-0.5c0.2-0.1,0.3-0.2,0.4-0.2c0.1,0,0.3,0.1,0.5,0.2s0.4,0.2,0.5,0.2
			c0.3,0,0.5-0.1,0.5-0.4s0-0.5-0.2-0.6c0.3,0,0.3-0.2,0.1-0.5c-0.1-0.1-0.2-0.2-0.3-0.3c-0.3-0.1-0.5,0-0.9,0.2
			c-0.2,0.1-0.1,0.2,0.1,0.3c0,0-0.1,0.1-0.3,0.3c-0.2,0.2-0.4,0.4-0.5,0.6c-0.2,0.1-0.3,0.1-0.5-0.2c0,0-0.1-0.2-0.2-0.4
			c-0.1-0.3-0.2-0.4-0.3-0.4c-0.2,0-0.3,0.2-0.5,0.5c0.1-0.2-0.1-0.3-0.4-0.5c-0.3-0.1-0.6-0.2-0.8-0.3c0.4-0.3,0.3-0.5-0.3-0.9
			c-0.1-0.1-0.4-0.1-0.7-0.2s-0.5,0-0.6,0.1c-0.1,0.2-0.2,0.3-0.2,0.4s0,0.2,0.2,0.3c0.1,0.1,0.2,0.1,0.3,0.2c0.1,0,0.2,0.1,0.4,0.1
			c0.1,0,0.2,0.1,0.3,0.1c0.3,0.2,0.4,0.4,0.3,0.4c0,0-0.1,0.1-0.3,0.1c-0.1,0.1-0.3,0.1-0.4,0.1c-0.1,0-0.2,0.1-0.2,0.1
			c-0.1,0.1-0.1,0.2,0,0.4c0.1,0.2,0,0.4-0.1,0.4c-0.1-0.1-0.2-0.3-0.3-0.6c-0.1-0.3-0.2-0.4-0.2-0.5c0.1,0.2-0.1,0.3-0.8,0.2h-0.3
			c-0.1,0-0.3,0-0.5,0.1c-0.3,0-0.5,0.1-0.7,0c-0.2,0-0.3-0.1-0.4-0.3c-0.1-0.2-0.1-0.4,0-0.6c0-0.1,0.1-0.1,0.1-0.1
			c-0.1-0.1-0.2-0.2-0.4-0.3c-0.1-0.1-0.3-0.2-0.3-0.3c-1,0.3-2,0.8-3,1.3c0.1,0,0.3,0,0.4,0c0.1,0,0.2-0.1,0.4-0.2s0.3-0.2,0.3-0.2
			c0.7-0.3,1.2-0.4,1.3-0.2l0.2-0.2c0.3,0.3,0.5,0.6,0.6,0.8c-0.1-0.1-0.5-0.1-1,0c-0.4,0.1-0.7,0.3-0.7,0.4
			c0.1,0.3,0.2,0.4,0.2,0.6c-0.1-0.1-0.2-0.2-0.4-0.3c-0.2-0.1-0.3-0.3-0.5-0.4c-0.1-0.1-0.3-0.1-0.5-0.2c-0.3,0-0.6,0-0.7,0
			c-3.1,1.7-5.6,4.1-7.5,7.1c0.1,0.1,0.3,0.2,0.4,0.3c0.1,0,0.1,0.1,0.2,0.3c0,0.2,0,0.3,0.1,0.4c0,0.1,0.2,0,0.4-0.1
			c0.2,0.2,0.2,0.4,0.1,0.6c0,0,0.5,0.3,1.4,0.9c0.4,0.4,0.6,0.6,0.7,0.7c0.1,0.2,0,0.4-0.3,0.6c0,0-0.1-0.1-0.3-0.3
			c-0.2-0.1-0.3-0.2-0.3-0.1c-0.1,0.1-0.1,0.3,0,0.6s0.2,0.4,0.3,0.4c-0.1,0-0.3,0.2-0.3,0.5c-0.1,0.3-0.1,0.7-0.1,1.1
			c0,0.4,0,0.7,0,0.8h0.1c-0.1,0.3,0,0.6,0.2,1.1s0.4,0.7,0.7,0.6c-0.3,0.1-0.1,0.5,0.6,1.4c0.1,0.2,0.2,0.3,0.3,0.3
			s0.2,0.1,0.4,0.2c0.2,0.1,0.4,0.2,0.5,0.3s0.2,0.2,0.3,0.3s0.2,0.3,0.3,0.7s0.3,0.6,0.4,0.8c0,0.1,0.1,0.3,0.3,0.6
			s0.4,0.5,0.3,0.7c0,0,0,0-0.1,0h-0.1c0.1,0.1,0.2,0.3,0.5,0.4c0.3,0.1,0.4,0.3,0.5,0.4c0,0.1,0,0.2,0.1,0.3c0,0.1,0.1,0.3,0.1,0.4
			c0,0.1,0.1,0.1,0.3,0.1c0-0.4-0.2-1.1-0.8-2c-0.3-0.5-0.5-0.8-0.5-0.9c-0.1-0.1-0.1-0.3-0.2-0.5c-0.1-0.2-0.1-0.4-0.1-0.5
			c0,0,0.1,0,0.2,0c0.1,0,0.2,0.1,0.3,0.1s0.2,0.1,0.2,0.1c0.1,0,0.1,0.1,0.1,0.1c-0.1,0.1,0,0.3,0.1,0.6c0.1,0.2,0.2,0.4,0.4,0.6
			c0.1,0.2,0.3,0.4,0.5,0.6c0.2,0.2,0.3,0.4,0.4,0.4c0.1,0.1,0.3,0.3,0.4,0.6c0.2,0.3,0.2,0.4,0,0.4c0.2,0,0.4,0.1,0.6,0.3
			c0.2,0.2,0.4,0.4,0.5,0.6c0.1,0.2,0.2,0.4,0.3,0.8c0.1,0.4,0.1,0.6,0.2,0.8c0,0.1,0.1,0.3,0.3,0.4c0.1,0.1,0.3,0.2,0.4,0.3
			c0.1,0.1,0.3,0.1,0.5,0.3s0.4,0.2,0.4,0.2c0.1,0,0.3,0.2,0.6,0.3s0.5,0.3,0.7,0.4c0.2,0.1,0.4,0.1,0.5,0.1s0.3,0,0.5-0.1
			s0.3-0.1,0.4-0.1c0.3,0,0.6,0.1,0.9,0.5c0.3,0.4,0.5,0.6,0.7,0.7c0.8,0.4,1.4,0.5,1.8,0.4c0,0,0,0.1,0,0.2
			c0.1,0.1,0.1,0.3,0.3,0.5c0.1,0.2,0.2,0.3,0.3,0.5c0.1,0.1,0.1,0.2,0.2,0.3c0.1,0.1,0.3,0.3,0.6,0.5s0.5,0.4,0.6,0.5
			c0.1-0.1,0.2-0.2,0.2-0.3c-0.1,0.2,0,0.4,0.2,0.6c0.2,0.3,0.4,0.4,0.6,0.3c0.3-0.1,0.4-0.4,0.4-1c-0.7,0.3-1.2,0.1-1.6-0.6
			c0,0,0-0.1-0.1-0.2c-0.1-0.1-0.1-0.2-0.1-0.3s-0.1-0.2-0.1-0.3s0-0.2,0-0.2c0-0.1,0.1-0.1,0.2-0.1c0.2,0,0.3,0,0.3-0.1
			s0-0.2-0.1-0.4s-0.1-0.3-0.1-0.4c0-0.2-0.1-0.4-0.4-0.6c-0.2-0.3-0.3-0.4-0.4-0.5c-0.1,0.2-0.3,0.3-0.5,0.3s-0.4-0.1-0.5-0.3
			c0,0,0,0.1,0,0.2c0,0.1,0,0.2,0,0.2c-0.3,0-0.4,0-0.5,0c0-0.1,0-0.3,0.1-0.6c0-0.3,0.1-0.6,0.1-0.7c0-0.1,0.1-0.2,0.2-0.4
			c0.1-0.2,0.2-0.3,0.2-0.5c0.1-0.1,0.1-0.3,0.1-0.4c0-0.1,0-0.2-0.1-0.3s-0.3-0.1-0.6-0.1c-0.4,0-0.7,0.2-0.8,0.6
			c0,0.1-0.1,0.2-0.1,0.3c0,0.2-0.1,0.3-0.2,0.4c-0.1,0.1-0.2,0.2-0.3,0.2C46.1,53,45.8,53,45.4,53c-0.4,0-0.6-0.1-0.8-0.2
			c-0.3-0.2-0.5-0.5-0.7-0.9s-0.3-0.8-0.3-1.2c0-0.2,0-0.5,0.1-0.9s0.1-0.6,0.1-0.8s0-0.4-0.2-0.8c0.1,0,0.2-0.1,0.3-0.3
			s0.2-0.3,0.3-0.3h0.1h0.1h0.1c0,0,0.1-0.1,0.1-0.2l-0.1-0.1c-0.1-0.1-0.1-0.1-0.1-0.1c0.1,0.1,0.5,0,0.9,0c0.5-0.1,0.8-0.1,0.9,0
			c0.3,0.2,0.6,0.2,0.7-0.1c0,0,0-0.1-0.1-0.3s-0.1-0.3,0-0.4c0.1,0.6,0.4,0.7,0.9,0.3c0.1,0.1,0.2,0.1,0.5,0.2
			c0.3,0,0.5,0.1,0.6,0.2c0.1,0,0.1,0.1,0.2,0.2c0.1,0.1,0.1,0.1,0.2,0.1c0,0,0.1,0,0.2,0c0.1,0,0.2-0.1,0.3-0.2
			c0.2,0.3,0.3,0.6,0.4,0.8c0.2,0.9,0.4,1.3,0.6,1.4c0.1,0.1,0.3,0.1,0.4,0.1c0.1,0,0.1-0.1,0.1-0.3s0-0.3,0-0.4c0-0.1,0-0.3,0-0.4
			v-0.3c0-0.2,0-0.4,0-0.6v-0.3c-0.3-0.1-0.5-0.2-0.6-0.4s-0.1-0.4,0-0.6c0.1-0.2,0.3-0.4,0.5-0.6c0,0,0.1-0.1,0.3-0.1
			c0.1-0.1,0.3-0.1,0.5-0.2c0.2-0.1,0.3-0.2,0.4-0.3c0.4-0.4,0.6-0.8,0.5-1.1c0.1,0,0.3-0.1,0.4-0.3c0,0-0.1,0-0.2-0.1
			c-0.1-0.1-0.2-0.1-0.2-0.2c-0.1,0-0.1-0.1-0.1-0.1c0.2-0.1,0.2-0.3,0.1-0.5c0.1-0.1,0.2-0.2,0.2-0.4c0.1-0.2,0.1-0.3,0.2-0.3
			c0.2,0.3,0.4,0.3,0.7,0.1c0.1-0.2,0.2-0.3,0-0.5c0.1-0.1,0.3-0.3,0.7-0.3c0.3-0.1,0.5-0.2,0.6-0.3c0.1,0,0.2,0,0.3-0.1
			c0-0.1,0-0.2,0-0.4s0-0.3,0.1-0.4c0.1-0.1,0.2-0.2,0.5-0.3c0.2-0.1,0.4-0.1,0.4-0.2l0.5-0.4c0.1-0.1,0.1-0.1,0-0.1
			c0.4,0,0.7-0.1,1-0.4c0.2-0.2,0.1-0.4-0.2-0.6c0.1-0.1,0-0.2-0.1-0.3s-0.3-0.1-0.5-0.2c0.1,0,0.2,0,0.4,0s0.3,0,0.3,0
			c0.3-0.2,0.2-0.4-0.2-0.5C57.5,37.5,57,37.7,56.5,38z M51.2,66.2c4.4-0.8,8.2-2.8,11.3-6.1C62.4,60,62.3,60,62.1,60
			s-0.3-0.1-0.4-0.1c-0.4-0.1-0.6-0.2-0.8-0.3c0-0.1,0-0.3-0.1-0.4c-0.1-0.1-0.2-0.2-0.3-0.3s-0.2-0.1-0.4-0.3
			c-0.2-0.1-0.3-0.2-0.4-0.2c0,0-0.1-0.1-0.2-0.2c-0.1-0.1-0.2-0.1-0.2-0.2c0,0-0.1-0.1-0.2-0.1s-0.2-0.1-0.3-0.1s-0.2,0-0.3,0h-0.1
			c-0.1,0-0.1,0-0.2,0.1c-0.1,0-0.1,0.1-0.2,0.1c-0.1,0-0.1,0.1-0.1,0.1v0.1c-0.4-0.4-0.8-0.6-1.2-0.7c-0.1,0-0.2-0.1-0.4-0.2
			c-0.1-0.1-0.2-0.2-0.3-0.2c-0.1-0.1-0.2-0.1-0.3,0c-0.1,0-0.2,0.1-0.4,0.2c-0.1,0.1-0.2,0.3-0.2,0.5s0,0.4-0.1,0.4
			c-0.1-0.1-0.1-0.3,0-0.6s0.2-0.5,0.1-0.6c-0.1-0.1-0.2-0.2-0.3-0.1c-0.2,0-0.3,0.1-0.4,0.1c-0.1,0.1-0.2,0.2-0.4,0.3
			s-0.2,0.2-0.3,0.2c0,0-0.1,0.1-0.3,0.2c-0.1,0.1-0.2,0.2-0.3,0.2C53,58,53,58.1,52.9,58.3c-0.1,0.2-0.1,0.3-0.2,0.4
			c0-0.1-0.2-0.2-0.4-0.2c-0.2-0.1-0.3-0.1-0.3-0.2c0,0.2,0.1,0.6,0.1,1.1s0.1,0.9,0.2,1.2c0.1,0.7,0,1.2-0.4,1.5
			c-0.6,0.5-0.9,1-0.9,1.3c-0.1,0.5,0,0.7,0.4,0.8c0,0.1-0.1,0.4-0.3,0.7c-0.2,0.3-0.2,0.5-0.2,0.7C51.2,65.8,51.2,66,51.2,66.2z"/>
	</g>
</g>
</svg>
