<?xml version="1.0" encoding="utf-8"?>
<!-- Generator: Adobe Illustrator 21.0.2, SVG Export Plug-In . SVG Version: 6.00 Build 0)  -->
<svg version="1.1" id="Layer_1" xmlns="http://www.w3.org/2000/svg" xmlns:xlink="http://www.w3.org/1999/xlink" x="0px" y="0px"
	 viewBox="0 0 92.7 92.7" style="enable-background:new 0 0 92.7 92.7;" xml:space="preserve">
<style type="text/css">
	.st0{fill:none;stroke:#D9D8DD;stroke-width:3.9014;stroke-miterlimit:10;}
	.st1{fill:#D9D8DD;}
</style>
<circle class="st0" cx="46.1" cy="46" r="43.3"/>
<g>
	<path class="st1" d="M37,46.6c-2.8,0.1-5.1,1.2-6.8,3.3h-3.4c-1.4,0-2.6-0.3-3.6-1s-1.4-1.7-1.4-3c0-6.1,1.1-9.1,3.2-9.1
		c0.1,0,0.5,0.2,1.1,0.5c0.6,0.4,1.5,0.7,2.5,1.1c1,0.4,2,0.6,3.1,0.6s2.3-0.2,3.4-0.6C35,39,35,39.6,35,40.1
		C34.9,42.4,35.6,44.6,37,46.6z M36.2,25.5c1.3,1.3,1.9,2.8,1.9,4.7c0,1.8-0.6,3.4-1.9,4.7c-1.3,1.3-2.8,1.9-4.7,1.9
		c-1.8,0-3.4-0.6-4.7-1.9c-1.3-1.3-1.9-2.8-1.9-4.7c0-1.8,0.6-3.4,1.9-4.7s2.8-1.9,4.7-1.9C33.4,23.5,35,24.2,36.2,25.5z M64.5,63
		c0,2.1-0.6,3.7-1.9,4.9c-1.3,1.2-2.9,1.8-5,1.8H35.2c-2.1,0-3.7-0.6-5-1.8c-1.3-1.2-1.9-2.8-1.9-4.9c0-0.9,0-1.8,0.1-2.7
		s0.2-1.8,0.4-2.8c0.2-1,0.4-1.9,0.7-2.8c0.3-0.9,0.6-1.7,1.1-2.5s1-1.5,1.6-2.1s1.3-1,2.2-1.4c0.9-0.3,1.8-0.5,2.9-0.5
		c0.2,0,0.5,0.2,1.1,0.6s1.2,0.8,1.9,1.2c0.7,0.5,1.6,0.9,2.8,1.2c1.1,0.4,2.3,0.6,3.5,0.6s2.3-0.2,3.5-0.6c1.1-0.4,2.1-0.8,2.8-1.2
		c0.7-0.5,1.3-0.9,1.9-1.2c0.6-0.4,0.9-0.6,1.1-0.6c1,0,2,0.2,2.9,0.5s1.6,0.8,2.2,1.4c0.6,0.6,1.1,1.3,1.6,2.1s0.8,1.7,1.1,2.5
		s0.5,1.8,0.7,2.8c0.2,1,0.3,1.9,0.4,2.8C64.5,61.2,64.5,62.1,64.5,63z M53.4,33c1.9,1.9,2.9,4.3,2.9,7s-1,5.1-2.9,7s-4.3,2.9-7,2.9
		s-5.1-1-7-2.9s-2.9-4.3-2.9-7s1-5.1,2.9-7c1.9-1.9,4.3-2.9,7-2.9C49.1,30.1,51.5,31.1,53.4,33z M65.9,25.5c1.3,1.3,1.9,2.8,1.9,4.7
		c0,1.8-0.6,3.4-1.9,4.7s-2.8,1.9-4.7,1.9c-1.8,0-3.4-0.6-4.7-1.9c-1.3-1.3-1.9-2.8-1.9-4.7c0-1.8,0.6-3.4,1.9-4.7
		c1.3-1.3,2.8-1.9,4.7-1.9C63,23.5,64.6,24.2,65.9,25.5z M71.1,45.8c0,1.3-0.5,2.4-1.4,3c-1,0.7-2.1,1-3.5,1h-3.4
		c-1.8-2.1-4-3.2-6.8-3.3c1.4-2,2.1-4.2,2.1-6.6c0-0.5,0-1.1-0.1-1.7c1.1,0.4,2.3,0.6,3.4,0.6c1,0,2-0.2,3.1-0.6
		c1-0.4,1.9-0.7,2.5-1.1c0.6-0.4,1-0.5,1.1-0.5C70,36.7,71.1,39.7,71.1,45.8z"/>
</g>
</svg>
