<?xml version="1.0" encoding="utf-8"?>
<!-- Generator: Adobe Illustrator 21.0.2, SVG Export Plug-In . SVG Version: 6.00 Build 0)  -->
<svg version="1.1" id="Layer_1" xmlns="http://www.w3.org/2000/svg" xmlns:xlink="http://www.w3.org/1999/xlink" x="0px" y="0px"
	 viewBox="0 0 92.7 92.7" style="enable-background:new 0 0 92.7 92.7;" xml:space="preserve">
<style type="text/css">
	.st0{fill:none;stroke:#D9D8DD;stroke-width:3.9014;stroke-miterlimit:10;}
	.st1{fill:#D9D8DD;}
</style>
<circle class="st0" cx="46.1" cy="46" r="43.3"/>
<g>
	<path class="st1" d="M52.8,39h13.8v26.7c0,0.7-0.2,1.2-0.7,1.7s-1,0.7-1.7,0.7h-34c-0.7,0-1.2-0.2-1.7-0.7s-0.7-1-0.7-1.7V25.2
		c0-0.7,0.2-1.2,0.7-1.7s1-0.7,1.7-0.7h20.2v13.8c0,0.7,0.2,1.2,0.7,1.7C51.6,38.7,52.1,39,52.8,39z M56.9,44.6V43
		c0-0.2-0.1-0.4-0.2-0.6c-0.2-0.2-0.3-0.2-0.6-0.2H38.3c-0.2,0-0.4,0.1-0.6,0.2s-0.2,0.3-0.2,0.6v1.6c0,0.2,0.1,0.4,0.2,0.6
		c0.2,0.2,0.3,0.2,0.6,0.2h17.8c0.2,0,0.4-0.1,0.6-0.2C56.8,45.1,56.9,44.9,56.9,44.6z M56.9,51.1v-1.6c0-0.2-0.1-0.4-0.2-0.6
		c-0.2-0.2-0.3-0.2-0.6-0.2H38.3c-0.2,0-0.4,0.1-0.6,0.2c-0.2,0.2-0.2,0.3-0.2,0.6v1.6c0,0.2,0.1,0.4,0.2,0.6
		c0.2,0.2,0.3,0.2,0.6,0.2h17.8c0.2,0,0.4-0.1,0.6-0.2C56.8,51.5,56.9,51.3,56.9,51.1z M56.9,57.6V56c0-0.2-0.1-0.4-0.2-0.6
		c-0.2-0.2-0.3-0.2-0.6-0.2H38.3c-0.2,0-0.4,0.1-0.6,0.2c-0.2,0.2-0.2,0.3-0.2,0.6v1.6c0,0.2,0.1,0.4,0.2,0.6s0.3,0.2,0.6,0.2h17.8
		c0.2,0,0.4-0.1,0.6-0.2C56.8,58,56.9,57.8,56.9,57.6z M64.9,34.8c0.2,0.2,0.5,0.5,0.7,0.9h-12V23.8c0.4,0.2,0.7,0.5,0.9,0.7
		L64.9,34.8z"/>
</g>
</svg>
