<?xml version="1.0" encoding="utf-8"?>
<!-- Generator: Adobe Illustrator 21.0.2, SVG Export Plug-In . SVG Version: 6.00 Build 0)  -->
<svg version="1.1" id="Layer_1" xmlns="http://www.w3.org/2000/svg" xmlns:xlink="http://www.w3.org/1999/xlink" x="0px" y="0px"
	 viewBox="0 0 45.3 35.6" style="enable-background:new 0 0 45.3 35.6;" xml:space="preserve">
<style type="text/css">
	.st0{fill:#FFFFFF;}
</style>
<path class="st0" d="M-7.8,5.8C-9,7.5-10.3,8.9-11.9,10c0,0.2,0,0.6,0,1.1c0,2.2-0.3,4.4-1,6.6s-1.6,4.3-2.9,6.3
	c-1.3,2-2.9,3.8-4.7,5.3c-1.8,1.5-4,2.8-6.5,3.7c-2.5,0.9-5.3,1.4-8.2,1.4c-4.6,0-8.7-1.2-12.5-3.7c0.6,0.1,1.2,0.1,2,0.1
	c3.8,0,7.2-1.2,10.1-3.5c-1.8,0-3.4-0.6-4.8-1.6c-1.4-1.1-2.4-2.4-2.9-4c0.6,0.1,1.1,0.1,1.5,0.1c0.7,0,1.4-0.1,2.1-0.3
	c-1.9-0.4-3.5-1.3-4.7-2.8c-1.2-1.5-1.9-3.2-1.9-5.2v-0.1c1.1,0.6,2.4,1,3.7,1c-1.1-0.7-2-1.7-2.7-2.9c-0.7-1.2-1-2.5-1-3.9
	c0-1.5,0.4-2.9,1.1-4.1c2,2.5,4.5,4.5,7.4,6c2.9,1.5,6.1,2.3,9.4,2.5c-0.1-0.6-0.2-1.3-0.2-1.9c0-2.3,0.8-4.2,2.4-5.8
	S-22.3,2-20.1,2c2.4,0,4.3,0.9,6,2.6c1.8-0.4,3.6-1,5.2-2c-0.6,1.9-1.8,3.4-3.6,4.5C-11,6.9-9.4,6.5-7.8,5.8z"/>
<path class="st0" d="M45.3,4v27.5c0,1.1-0.4,2.1-1.2,2.9c-0.8,0.8-1.7,1.2-2.9,1.2H4c-1.1,0-2.1-0.4-2.9-1.2C0.4,33.6,0,32.7,0,31.6
	V4C0,2.9,0.4,2,1.2,1.2C2,0.4,2.9,0,4,0h37.2c1.1,0,2.1,0.4,2.9,1.2C44.9,2,45.3,2.9,45.3,4z M42.1,5c0,0,0-0.1,0-0.3
	c0-0.2,0-0.3,0-0.3c0-0.1,0-0.2,0-0.3c0-0.1,0-0.2-0.1-0.3c0-0.1-0.1-0.1-0.1-0.2c-0.1-0.1-0.1-0.1-0.2-0.2c-0.1,0-0.2-0.1-0.4-0.1
	H4c-0.2,0-0.4,0.1-0.6,0.2S3.2,3.8,3.2,4c0,2.8,1.2,5.2,3.7,7.2c3.3,2.6,6.6,5.2,10.1,8c0.1,0.1,0.4,0.3,0.9,0.7
	c0.5,0.4,0.9,0.7,1.2,0.9c0.3,0.2,0.7,0.5,1.1,0.8c0.5,0.3,0.9,0.5,1.3,0.7c0.4,0.2,0.8,0.2,1.1,0.2h0h0c0.3,0,0.7-0.1,1.1-0.2
	c0.4-0.2,0.8-0.4,1.3-0.7c0.5-0.3,0.8-0.6,1.1-0.8c0.3-0.2,0.7-0.5,1.2-0.9s0.8-0.7,0.9-0.7c3.5-2.8,6.9-5.5,10.1-8
	c0.9-0.7,1.8-1.7,2.5-2.9C41.7,7.1,42.1,6,42.1,5z M42.1,31.6V12.1c-0.5,0.6-1.1,1.2-1.7,1.7c-4.5,3.5-8.1,6.3-10.8,8.5
	c-0.9,0.7-1.6,1.3-2.1,1.7c-0.5,0.4-1.3,0.8-2.2,1.2s-1.8,0.6-2.6,0.6h0h0c-0.8,0-1.7-0.2-2.6-0.6c-0.9-0.4-1.6-0.8-2.2-1.2
	c-0.5-0.4-1.2-1-2.1-1.7c-2.7-2.2-6.3-5.1-10.8-8.5c-0.6-0.5-1.2-1.1-1.7-1.7v19.4c0,0.2,0.1,0.4,0.2,0.6c0.2,0.2,0.3,0.2,0.6,0.2
	h37.2c0.2,0,0.4-0.1,0.6-0.2C42,32,42.1,31.8,42.1,31.6z"/>
</svg>
