<?xml version="1.0" encoding="utf-8"?>
<!-- Generator: Adobe Illustrator 21.0.2, SVG Export Plug-In . SVG Version: 6.00 Build 0)  -->
<svg version="1.1" id="Layer_1" xmlns="http://www.w3.org/2000/svg" xmlns:xlink="http://www.w3.org/1999/xlink" x="0px" y="0px"
	 viewBox="0 0 65.8 64.1" style="enable-background:new 0 0 65.8 64.1;" xml:space="preserve">
<style type="text/css">
	.st0{fill:#FFFFFF;}
</style>
<g>
	<path class="st0" d="M17.4,6.2c4.7-2.7,9.9-4.1,15.4-4.1s10.7,1.4,15.4,4.1c4.7,2.8,8.4,6.5,11.2,11.2c2.7,4.7,4.1,9.9,4.1,15.4
		c0,6.7-2,12.7-5.9,18.1c-3.9,5.4-9,9.1-15.2,11.1c-0.7,0.1-1.3,0-1.6-0.3c-0.3-0.3-0.5-0.7-0.5-1.2c0-0.1,0-1.1,0-3.1s0-3.8,0-5.4
		c0-2.6-0.7-4.5-2.1-5.7c1.5-0.2,2.9-0.4,4.1-0.7c1.2-0.3,2.5-0.8,3.8-1.6c1.3-0.7,2.4-1.6,3.2-2.7c0.9-1.1,1.6-2.5,2.1-4.2
		c0.5-1.7,0.8-3.8,0.8-6c0-3.2-1.1-5.9-3.2-8.3c1-2.4,0.9-5.2-0.3-8.2c-0.7-0.2-1.8-0.1-3.2,0.4c-1.4,0.5-2.6,1.1-3.7,1.8l-1.5,1
		c-2.5-0.7-5-1-7.7-1c-2.6,0-5.2,0.3-7.7,1c-0.4-0.3-1-0.7-1.7-1.1c-0.7-0.4-1.8-0.9-3.3-1.5c-1.5-0.6-2.7-0.8-3.4-0.5
		c-1.2,3-1.3,5.7-0.3,8.2c-2.1,2.3-3.2,5.1-3.2,8.3c0,2.3,0.3,4.3,0.8,6c0.5,1.7,1.2,3.1,2.1,4.2c0.9,1.1,1.9,2,3.2,2.7
		c1.3,0.7,2.6,1.2,3.8,1.6c1.2,0.3,2.6,0.6,4.1,0.7c-1,1-1.7,2.3-2,4.1c-0.6,0.3-1.2,0.5-1.8,0.6c-0.6,0.1-1.4,0.2-2.3,0.2
		c-0.9,0-1.8-0.3-2.6-0.9c-0.9-0.6-1.6-1.4-2.2-2.5c-0.5-0.9-1.2-1.5-1.9-2.1c-0.8-0.5-1.4-0.9-2-1l-0.8-0.1c-0.6,0-0.9,0.1-1.2,0.2
		c-0.2,0.1-0.3,0.3-0.2,0.5c0.1,0.2,0.2,0.4,0.4,0.6c0.2,0.2,0.3,0.3,0.5,0.5l0.3,0.2c0.6,0.3,1.2,0.8,1.7,1.5c0.6,0.7,1,1.4,1.3,2
		l0.4,0.9c0.3,1,0.9,1.8,1.8,2.5c0.8,0.6,1.7,1,2.7,1.2c1,0.2,1.9,0.3,2.8,0.3c0.9,0,1.6,0,2.2-0.1l0.9-0.2c0,1,0,2.2,0,3.5
		s0,2.1,0,2.2c0,0.5-0.2,0.9-0.5,1.2c-0.3,0.3-0.9,0.4-1.6,0.3C16.9,60,11.9,56.3,8,50.9c-3.9-5.4-5.9-11.4-5.9-18.1
		c0-5.6,1.4-10.7,4.1-15.4C9,12.7,12.7,8.9,17.4,6.2z M13.8,46.2c0.1-0.2,0-0.3-0.3-0.5c-0.3-0.1-0.4-0.1-0.5,0.1
		c-0.1,0.2,0,0.3,0.3,0.5C13.5,46.5,13.7,46.5,13.8,46.2z M15,47.6c0.2-0.1,0.2-0.3-0.1-0.6c-0.3-0.2-0.5-0.3-0.6-0.1
		c-0.2,0.1-0.2,0.3,0.1,0.6C14.6,47.8,14.9,47.8,15,47.6z M16.2,49.4c0.2-0.2,0.2-0.4,0-0.8c-0.2-0.3-0.4-0.4-0.7-0.2
		c-0.2,0.1-0.2,0.4,0,0.7C15.8,49.5,16,49.6,16.2,49.4z M17.9,51.1c0.2-0.2,0.2-0.5-0.2-0.8c-0.3-0.3-0.6-0.4-0.8-0.1
		c-0.2,0.2-0.2,0.5,0.2,0.8C17.4,51.3,17.7,51.3,17.9,51.1z M20.2,52.1c0.1-0.3-0.1-0.5-0.5-0.6c-0.4-0.1-0.7,0-0.8,0.3
		c-0.1,0.3,0.1,0.5,0.5,0.6C19.8,52.5,20.1,52.4,20.2,52.1z M22.7,52.3c0-0.3-0.2-0.5-0.7-0.4c-0.4,0-0.6,0.1-0.6,0.4
		c0,0.3,0.2,0.5,0.7,0.4C22.5,52.7,22.7,52.6,22.7,52.3z M25,51.9c-0.1-0.3-0.3-0.4-0.7-0.4c-0.4,0.1-0.6,0.3-0.6,0.6
		c0.1,0.3,0.3,0.4,0.7,0.3C24.9,52.3,25.1,52.2,25,51.9z"/>
</g>
</svg>
