<?xml version="1.0" encoding="utf-8"?>
<!-- Generator: Adobe Illustrator 21.0.2, SVG Export Plug-In . SVG Version: 6.00 Build 0)  -->
<svg version="1.1" id="Layer_1" xmlns="http://www.w3.org/2000/svg" xmlns:xlink="http://www.w3.org/1999/xlink" x="0px" y="0px"
	 viewBox="0 0 1146.1 849.7" style="enable-background:new 0 0 1146.1 849.7;" xml:space="preserve">
<style type="text/css">
	.st0{fill:#04222D;}
</style>
<g>
	<path class="st0" d="M1079.3,305.9c-17.8-24.4-61.6,62-79.6,60.5c4.4,0.4-18.4-30.2-17.3-28.5c-12.7-18.7-19.3-31-41.6-40.6
		C825,247.6,822.5,409.5,820.2,479.1c-1.2,35.6,2.9,71.3,2,106.8c-0.9,37.9-3.8,63.3-34.4,50.2c-63.6-27.4-88.1-139.9-104.3-197.5
		c-11.7-25.5-19.2-68.3-24.2-97.3c-5.8-33.7,5.2-29.3,26.4-56.9c23.6-30.8,35.5-69,41.4-106.7c-0.8,1.4-1.9,1.3-3.2-0.2
		c0.4,1.3,4,2.7,1.6,5c0.2-3.2-0.7-4.1-2.8-2.8c0.7,6,3.9,6.9-0.2,14.9c0-1.6-0.6-2.8-1.8-3.7c0.4-1.3,0.7-1,0.9,0.9
		c2.6-5,0.1-0.1,2.3-2.6c-5.9-3,2.9-25.5,4.1-27.9c-0.1,3.9-0.1,7.8,0,11.7c0.8-7.9,1-15.5,0.8-23.6c-0.6,1.2,0.8,4.5-1.2,5.1
		c-6.7-43.8-49.5-133.4-110-80.3c-43.1,37.8-16.3,138.8-4.8,185.4c-4-42.3-10.1-87.7-3.6-129.8c2.2,9.3,7.9,138.9,5.6,139.7
		c-0.6-3.3-1.3-6.6-1.9-9.9c-1.7,10.9,7.4,22,6.7,33.4c-0.8,13.3-6.7,14-9.5,23.7c2.1,6.5,14.1,2.4,16.6,9.5
		c4,11.2,6.3,29.4,9.1,42.2c7.1,31.9,19.7,66.2,19.9,97.4c0.3,57.1-2.5,119.4-4.8,176.9c-2.5,62.3-27.7,65.5-64.9,23.1
		c-22.9-26-37.8-64.6-49.8-96.7c-2.9-7.6-18.6-76.9-21.3-78.3c-1.3,0.3-2.3,1.2-2.9,2.6c-4-26.6-15.7-63.4-22.6-93.3
		c-6.7-29.2-5.5-26,14.3-48.1c29.9-33.3,45.4-76.5,52.3-120.1c-0.8,1.4-1.9,1.3-3.2-0.2c0.4,1.3,4,2.7,1.6,5
		c0.2-3.2-0.7-4.1-2.8-2.8c0.7,6,3.9,6.9-0.2,14.9c0-1.6-0.6-2.8-1.8-3.7c0.4-1.3,0.7-1,0.9,0.9c2.6-5,0.1-0.1,2.3-2.6
		c-5.9-3,2.9-25.5,4.1-27.9c-0.1,3.9-0.1,7.8,0,11.7c0.8-7.9,1-15.5,0.8-23.6c-0.6,1.2,0.8,4.5-1.2,5.1
		c-6.7-43.8-49.5-133.4-110-80.3c-43.1,37.8-16.3,138.8-4.8,185.4c-4-42.3-10.1-87.7-3.6-129.8c2.2,9.3,7.9,138.9,5.6,139.7
		c-0.6-3.3-1.3-6.6-1.9-9.9c-1.7,10.9,7.4,22,6.7,33.4c-0.8,13.3-6.7,14-9.5,23.7c1.7,5.2,14.9,14.5,18.9,24.1
		c8.3,19.7,9.7,45,15,66c7.1,28.2,9.1,28.4,2.3,49.1c-6.7,20.3-20.7,39.9-29.3,59.4c-11.2,25.3-30.1,113-64.5,105.8
		c-23.9-5-41.5-48.9-40.4-70.5c7.7,24.3,70.2-34.9,62.3-39c-0.6,1.3-1.5,2.4-2.7,3.3c0.3-18.9,12.6-27.1,9.4-48.1
		c-7.3-48.4-59.1-59.1-81.1-11.7c-16.7,35.8-31.9,76.2-41.4,115.9c-5.2,21.7-8.2,44.3-9.5,66.3c-1.5,26.6,9.1,67.9-3.6,92.6
		c-15.5,1-44.7-91.9-46-94.1c2.2,35.2,31.9,65.8,38.2,96.6c-8.7-11.9-66.7-136.9-52.4-141.4c1.4,10,5.4,17.2,9.7,26.6
		c-2.3-29.1-15-72.9-27.5-100c-31.7-68.6-44,25.9-48.4,30.2c2.8,8.8-6,24.5-2.4,2c-18.2,24.3-0.6,98.6,2.6,124.6
		c1.9,15.5-2,55.8,1.3,66.3c-76.4-104.8-77-233-93.5-353.8c-3.2-1.3-4.2-0.4-2.8,2.8c-0.4-4.7-1.4-9.3-3.2-13.8
		c-3.1-9.7-17.7,30-18.6,39c-2.7,27-1.4,54.7,2.7,81.6c10.6,69.8,28,137.8,55.9,202.8c8.5,19.7,21.5,54.2,41.9,65.6
		c55.2,30.9,42.8-46.1,37.3-72.6c-6.5-31.8-9.6-79.5-16.9-103.8c8.4-2.6-3.3-43.4,6-55c1.6,5.1,3.3-3.6-0.6,0.2
		c2.5-2.5,2.9-10.1,4.8-13.9c-2.9,5.8,7.3-17,11.3-12.9c9.9,5.1,14.5,87.4,17.6,100c10.1,40.4,23.5,85.2,44.7,121
		c26.7,45.2,64.5,31.6,67.7-20.3c3.5-57.3-4-110.3,11.6-166.9c-0.5,56.3,54.9,139.2,112.1,81.1c34-34.5,42.2-100.9,63-143.7
		c4.4,13.4,0.7-1.5,1.8-3.7c1.3,4.1-1.6,14.1,0.3,9.3c-4.7,9,20.2,55.4,24.2,64.3c16.3,36.8,34.4,82.6,69.8,104.9
		c109.7,69.2,90.6-137.3,88.7-190.1c29.8,47.1,40.4,137.7,108.9,146c85.8,10.3,63.6-116.2,63-167.4c7.6,22.3,29.1,20.9,46.5,27.7
		c7.5,2.9,14.9-4.2,21.9,1c-0.9-0.6,13.5,35.3,12.2,32.9c33,62.1,88,25.8,99.8-28.4c5.6-25.8,6.4-53.3,2.6-79.3
		c-2.8-19.3-15.2-42.4-11.5-61.2C1022.5,372.1,1083.7,319.6,1079.3,305.9z M723.1,125.9C728.4,131.3,720.7,130.5,723.1,125.9z
		 M611.3,120.1c-0.3-0.5-0.2-0.9,0.2-1.3C611.5,118.8,611.1,119.5,611.3,120.1z M682.7,253c0.7-2.7,2.4-4.7,4.9-5.9
		C686,249.1,684.3,251.1,682.7,253z M698.1,225.9c-0.6,7.1-3.5,12.3-8.6,15.7C681.2,257.7,703.1,216.2,698.1,225.9z M702.2,213.5
		C701.8,212.2,708.1,211.6,702.2,213.5z M707.1,232.9c0.4-2.6,1.2-5.9,3.6-8C711.3,228.5,710.3,231.2,707.1,232.9z M715.4,217.9
		c-1.4,2.1-2.8,4.2-4.2,6.3c-1.6-4.9,2.9-13.6,6.5-16.3C716.9,211.2,716.1,214.6,715.4,217.9z M722.4,195.3c0.2,0.6-0.4,0.7-0.8,1.5
		C721.4,196.2,721.8,195.5,722.4,195.3z M719.3,199.3c-0.3-2.1,6-6.2,0.7,4.1C720.6,205.1,719.3,204.3,719.3,199.3z M718.9,205.7
		c-0.2,1.3,0,1.9-1.3,1.7C717.4,206.8,717.7,206,718.9,205.7z M627.9,243.9C626.4,257.5,626.8,240.4,627.9,243.9z M626,232.1
		c-5.2-21.7-1.5-53.2-5.5-65.9c0.5,1.6,0-6.7,1.3-9.4c-5.5,1.8-0.9-18.3-1-5.2c0-1.3,2.5-7-1.2-5.8c3.1-1,4.6-30.8,6.4-36
		C611.5,114.5,637.6,228.4,626,232.1z M628.9,268.3c-0.6-2.7-3.2-7.4-1.5-10.6C628.3,260.9,628.2,265.4,628.9,268.3z M631.1,294.8
		l0.7,0.4C631.5,295.9,631.5,295.9,631.1,294.8z M631.5,294c-0.3-4-1.3-7.9-1.3-11.9C631.8,284.3,632.7,291.8,631.5,294z
		 M642.5,291.7c-10.1-5.2-10.7-85.6-11.5-98.2c-1.7-26.1-6.8-78.9,8.5-101.9c12.3-18.5,26.2-18.2,43.9-4.9
		c34.9,26.1,28.2,74.7,22.5,111.4c15.7-5,1.3-56.6,9-59.1c7.7,7.9,0.5,66.5-9.9,69.9c0.2-3.7,0.7-7.3,1.5-11
		C692.4,202.4,668.4,305.1,642.5,291.7z M651.9,393.1C651.7,393.6,652.3,390.6,651.9,393.1z M552.1,180.3
		C557.3,185.7,549.7,184.9,552.1,180.3z M440.3,174.5c-0.3-0.5-0.2-0.9,0.2-1.3C440.5,173.2,440.1,174,440.3,174.5z M511.6,307.5
		c0.7-2.7,2.4-4.7,4.9-5.9C514.9,303.5,513.3,305.5,511.6,307.5z M527.1,280.3c-0.6,7.1-3.5,12.3-8.6,15.7
		C510.2,312.1,532,270.7,527.1,280.3z M531.2,267.9C530.8,266.7,537.1,266,531.2,267.9z M536.1,287.3c0.4-2.6,1.2-5.9,3.6-8
		C540.3,282.9,539.3,285.7,536.1,287.3z M544.3,272.4c-1.4,2.1-2.8,4.2-4.2,6.3c-1.6-4.9,2.9-13.6,6.5-16.3
		C545.9,265.7,545.1,269,544.3,272.4z M551.3,249.7c0.2,0.6-0.4,0.7-0.8,1.5C550.4,250.7,550.8,249.9,551.3,249.7z M548.3,253.8
		c-0.3-2.1,6-6.2,0.7,4.1C549.5,259.6,548.2,258.7,548.3,253.8z M547.8,260.1c-0.2,1.3,0,1.9-1.3,1.7
		C546.3,261.2,546.7,260.5,547.8,260.1z M456.8,298.4C455.4,311.9,455.7,294.8,456.8,298.4z M455,286.6c-4.2-17-12.4-52.5-6.3-68.4
		c0.5,1.7,1.1,3.4,1.6,5c1.8-6.3-1.5-8,0.5-11.9c-5.5,1.8-0.9-18.3-1-5.2c0-1.3,2.5-7-1.2-5.8c3.1-1,4.6-30.8,6.4-36
		C440.5,168.9,466.6,282.9,455,286.6z M457.8,322.7c-0.6-2.7-3.2-7.4-1.5-10.6C457.2,315.3,457.2,319.8,457.8,322.7z M460.1,349.2
		l0.7,0.4C460.4,350.3,460.4,350.3,460.1,349.2z M460.5,348.5c-0.3-4-1.3-7.9-1.3-11.9C460.7,338.7,461.6,346.2,460.5,348.5z
		 M471.5,346.2c-10.1-5.2-10.7-85.6-11.5-98.2c-1.7-26.1-6.8-78.9,8.5-101.9c12.3-18.5,26.2-18.2,43.9-4.9
		c34.9,26.1,28.3,74.7,22.5,111.4c15.7-5,1.3-56.6,9-59.1c7.7,7.9,0.5,66.5-9.9,69.9c0.2-3.7,0.7-7.3,1.5-11
		C521.3,256.8,497.3,359.6,471.5,346.2z M480.9,447.6C480.6,448.1,481.3,445.1,480.9,447.6z M42.3,437.7c1.1,1.5,0.9,2.8-0.1,3.7
		C41.2,439.9,41.6,439.2,42.3,437.7z M41.1,443.7c2.4-4.6-0.4,7.9-0.5,8.2C40.3,449.1,40.5,446.4,41.1,443.7z M37.9,505.2
		c-1.4-7.5-0.7-34.1,1.5-41.9C38.3,469.9,37.9,505.2,37.9,505.2z M43,535.1c-0.5-1.5-4.9-10.1-4-20.3
		C40.7,520.1,43.2,535.2,43,535.1z M58.9,631.3C58.1,627.9,58.3,629.6,58.9,631.3z M60.4,642C63,639,60.7,641.7,60.4,642z
		 M61.5,629.9c-7.6-12.4-6.9-25.6-11-38.5C57.3,594.9,61.8,630.8,61.5,629.9z M78.8,697.9c-8.2-10.7-9.6-31.3-14.8-44.7
		C69.2,651.5,79.3,694.7,78.8,697.9z M67.5,652.7C69.3,653.6,70,660.3,67.5,652.7z M104.1,757.8c-2.5-7.8-19.7-20.8-14.3-31.3
		c0.6-0.2,1.1-0.4,1.7-0.5C94.9,736.7,100.3,747.7,104.1,757.8z M112.6,743.9C71,662.7,39.3,535.3,53.4,445.3
		c7.6,23.9,1.1,58.2,4.3,83.7c3.3,26.6,8.4,53.1,14,79.3C81.6,654.5,103.7,698.5,112.6,743.9z M114.4,778.6
		C114.7,778,114.7,778,114.4,778.6z M119.8,788C119.7,784.6,120.7,786.2,119.8,788z M121.3,761.6
		C121.9,761.6,122.7,761.8,121.3,761.6z M134.1,782.2C136,778.7,135.1,782.7,134.1,782.2z M148.6,600.9l-0.2-2.4
		C148.6,599.1,149,600.2,148.6,600.9z M147.9,596.8c0.6-2,0.1-3.7,2.1-5C150.8,594.1,150,595.5,147.9,596.8z M145.7,665.5
		c-5.3-2.7-0.6-37.2,0.8-42.2C147.1,631.6,145.3,664.3,145.7,665.5z M154.6,736.1C151.5,728.8,155.2,735,154.6,736.1z M161.5,788.9
		l-0.8,1.5C160.6,789.8,161,789.1,161.5,788.9z M161.4,800.1C161.9,799,161.9,799.5,161.4,800.1z M173.4,795c-1.3,1-0.6-0.7,0-1.9
		C173,793.9,173.2,794.5,173.4,795z M173.2,792.6L173,792C172.8,791.5,173.6,791.9,173.2,792.6z M170.3,762
		c1.2,7.3,2.5,15.6,2.1,22.2c0.2-0.1-11.1-40.3-5.9-42C167.4,748.9,168.7,755.5,170.3,762z M162.9,731c1,3.2,2,6.4,3,9.5
		c-1-1.9-4.7-14.3-4.2-17.2C163.6,725.7,164,728.2,162.9,731z M159.8,713.5c2,2.4,2.6,5.1,1.9,8C161,718.8,160.4,716.2,159.8,713.5z
		 M160.6,764.5c-1.9-6.1-0.4,14.3-0.4,14.3c-1.3-7.4-6.1-23.5-2.8-30C158.5,754.1,159.5,759.3,160.6,764.5z M156.4,743.6
		C157.4,754.4,156.4,743.6,156.4,743.6z M155.7,727.8c0.6,9.9-15.1-47.1-8.3-49.3C150.7,693.3,152.8,712.2,155.7,727.8z
		 M154.8,573.6C155.8,566.7,154.5,574.2,154.8,573.6z M190.6,608.6C192.2,604,191.1,607.6,190.6,608.6z M200.8,650.4
		c-3-9.4-4.2-22.9-7.2-32.3C198.1,620.4,200.2,644.1,200.8,650.4z M204,664.2C203.4,659.6,204.9,662.4,204,664.2z M215,700.8
		c-0.7-2.2-2.3-5.3-2.9-7.1C212.8,695.7,216.3,698.4,215,700.8z M227.7,738.8c-1.8-0.9-5.1-7.6-1.6-8.8
		C226.7,730.8,229.6,738.2,227.7,738.8z M233.8,756c-2,3.8-4.7-4.9-5.1-6.4C231.2,750.8,232.9,752.9,233.8,756z M261.7,800.9
		c-1.7-1.3-28-34.3-23.7-35.7C246.1,764.3,261.6,801.3,261.7,800.9z M386.1,578.4C386.1,577.9,388.8,573.2,386.1,578.4z M399.7,571
		c3.3-4.6-0.9,3.6-4.4,5.7C396.8,574.8,398.3,572.9,399.7,571z M396.9,560.2c-2.9,4.6-5.7,9.2-8.6,13.8
		C388.9,570.5,400.6,547.3,396.9,560.2z M361.2,490.6c-0.2,1.3-0.9,0.9-1.1,0.4L361.2,490.6z M352.1,502.8c-0.4,0.7-0.4,0.7-0.8,1.5
		L352.1,502.8z M349.5,488.8c-0.9,2-3,8.6-4.8,12C344,497.4,344,492.8,349.5,488.8z M350.2,506.5
		C349.2,505.5,349.8,506.1,350.2,506.5z M343.6,497.5C344.5,500.3,340.2,498.5,343.6,497.5z M342.4,499.7
		C342.2,501.3,341.7,503.9,342.4,499.7z M333.2,524.9c-0.6,2.5-1.8,4.2-1.4,7.2C331,529.4,331.5,527,333.2,524.9z M304.1,582.9
		c1.8-3.5,3.6-6.9,5.4-10.4c1.5,9.1-2.8,10.9-5.6,17.2C303.9,587.5,304,585.2,304.1,582.9z M287.2,733.5c-1,6.1-5.6-16.9-1.2-21.2
		C287.9,719.1,288.3,726.2,287.2,733.5z M291,658.1c-3.6,16.1,2.3,39-5.2,53.5c-7.7-11.6,1.7-113.6,16.1-118.2
		C293.4,610,300.1,640.4,291,658.1z M299.3,659.2c0.9,0.9,1.8,1.9,0.5,3.5C298.2,661.4,298.4,660.1,299.3,659.2z M298.4,726.2
		C301.4,722.2,298.1,726.7,298.4,726.2z M298.8,723.6C299.4,722.5,299.4,723,298.8,723.6z M299.9,674.4c-0.9,12.7-1,29.9-1.5,41.9
		c-3.1-9.7-6.1-46.6,0.9-53.4C301.8,666.3,302,670.2,299.9,674.4z M305.2,627.1c-1.4,8.7-1.7,24.1-5.5,31.4
		C298.6,652.5,305.3,614.4,305.2,627.1z M305.5,620.2c1.3-3.9,2.3-8,3-12.1C307.8,612.2,306.8,616.2,305.5,620.2z M308.6,606.8
		c-0.9-2.8,0.1-5.6,2-7.4C311.3,603.5,311.1,604.8,308.6,606.8z M311,598.7c-0.4-1.1,0-1.9,1.3-1.7
		C311.9,597.7,311.5,598.5,311,598.7z M316.3,590.2c-0.6,3.6,0.5,1.4-3.8,5.5c-1-3.1,2.5-13.8,4-17.4
		C317.1,582.3,317.1,586.3,316.3,590.2z M321.9,600.1C322,599.6,322.2,598.7,321.9,600.1z M324.4,578.9c-3,1.4-0.6-1.4-0.1-4.3
		C324.1,575.9,324.6,577.6,324.4,578.9z M324.2,569.7C324.6,568.5,324.3,569.5,324.2,569.7z M325,623.2
		C326,622.2,325.3,622.8,325,623.2z M339.7,549.3c-0.2-19.8,10.4-29.7,16.7-48.5c-1.1,0.4-2.3,0.6-3.5,0.5
		c0.1-8.8,21.4-15.6,28.7-11.5c15.6,8.7,15.1,29,13.9,44.3c-1.4,16.7-16.4,63.5-39.9,62.7C337.1,596.2,336,562.2,339.7,549.3z
		 M502.1,527.9C502,526.2,501.3,525.3,502.1,527.9z M509.1,546.1c3.4,10.5,2,6.8-4.1-11C506.4,538.7,507.8,542.4,509.1,546.1z
		 M509.6,496.6C503.4,503.9,508.9,490.3,509.6,496.6z M497.6,449.7c0.8,2.6,5.6,16.3,4.2,19C496.3,465.9,495,454.8,497.6,449.7z
		 M448.9,581.9c3.7-23.8,24.9-55.7,37.2-77.4c3.8,11.9-8.1,19.8-12.7,28.2c2,0.1-5.9,14.1-11.3,24.6c0-0.2-1,2.7-2.4,10
		c0.2-3.2-0.7-4.1-2.8-2.8c0.9,2.9-0.5,6.3,1.8,5.6c-1-1.3-0.8-2,0.6-2c-4,3.2-1.3,3.5-2.9,6.5c0.1-0.1-8.7,3-0.8,7.1
		c-2.8,0.9-2.7-1.1-4.3,2c0.2,0.6,0.7,2.4-2.3,4.4c2.5-0.6,2.9,0.6,1.1,3.4c-0.3-4.3-1.6-4.5-3.9-0.6
		C447.1,587.8,448,584.9,448.9,581.9z M477.4,525.9C478.9,526.7,477.7,526.9,477.4,525.9z M476.6,529.2
		C477.2,526.3,477.2,529,476.6,529.2z M476.2,530C475.1,532.1,475.2,531.1,476.2,530z M449.1,594.2
		C448.3,595.7,446.4,596.2,449.1,594.2z M442.1,601.4c1.4-3.3,2.8-6.7,4.2-10c0.9,2.8,1.2,5.9,0.5,7.3c-0.2-0.7-0.5-1.5-0.7-2.2
		C445.7,599,443.6,600.9,442.1,601.4z M445.8,605.1C444.8,606.2,445.4,605.5,445.8,605.1z M432.6,629.7c-1.2,3-2.5,5.9-4,8.7
		C426.7,632.5,433.9,621.9,432.6,629.7z M432.7,626c1.4-3.5,2.7-7,4.1-10.6C438,619.1,436.7,622.6,432.7,626z M442.2,607.5
		c-1.5,1.5-0.7,5.8-1.7,2.4c-0.7,1.4-1.5,5-4,5c1.3-4.5,3-8.7,5.2-12.8C443.1,606.3,441.8,610.4,442.2,607.5z M444.3,633.4
		c0.4-0.7,0.9-0.9,1.5-1.1C445.3,632.5,444.9,633.2,444.3,633.4z M490.2,528.3c2.7,4.8-38.1,96.8-44.2,102.7
		c-3.7-11.7,17.7-50.7,23.5-63.8C472.4,560.5,494.3,520.4,490.2,528.3z M500.7,523.4C502.2,526.7,501.9,526,500.7,523.4z
		 M501.4,527.5C504,535.7,500.3,529.7,501.4,527.5z M513,562.1c0.2,0.5-13.1-24-8.9-28C507.4,543.3,510.1,553,513,562.1z
		 M513.7,566.2C515.2,558.5,515,565.8,513.7,566.2z M514.1,524.7C511.3,521.8,514.2,525.2,514.1,524.7z M515.5,515.6
		C516.1,515.7,516.9,515.9,515.5,515.6z M524.5,536.8c-3.3-4.4-5.3-9.5-5.9-15.3C520.1,526.2,522.7,532.1,524.5,536.8z M536.6,618.8
		c-1.1-1.8-7.4-6.5-6-9.2C533,610.8,538.3,615.6,536.6,618.8z M549.3,645.1c0.6,1.2-8.1-9.8-0.7-6
		C551.8,642.6,552.1,644.6,549.3,645.1z M559,659.9c-1.2-2.1-3.5-4.2-4.6-6.6C557.1,654.6,557.7,657.7,559,659.9z M561.7,637.4
		c-21.2-7.4-36-74-39.9-94.2C516.5,545,564.9,628.2,561.7,637.4z M565.7,671.3C566.1,670.5,566.1,670.5,565.7,671.3z M570.8,652.4
		C567.2,641,569.7,654.5,570.8,652.4z M574.5,681.5C574.8,681,574.8,681,574.5,681.5z M661.2,473.7c2.3-2.5,1.8-3.2,0.2-0.2
		c2.7,3.4,1.5-1.8,2,2.4C663.1,478.3,662.5,475.9,661.2,473.7z M672.4,475.3C673.1,469.3,675.7,484.6,672.4,475.3z M673.2,473.5
		C673,471.8,672.3,470.8,673.2,473.5z M673,471C673,471,672.9,471,673,471z M674.4,483C671.8,475,675,484.9,674.4,483z M677.1,483.4
		c1.8,4.3,3.4,8.8,4.7,13.3C678.3,492.5,676.7,488.1,677.1,483.4z M680.3,445.3C679.1,442.1,682.4,438,680.3,445.3z M668.7,395.2
		c0.8,2.6,5.6,16.3,4.2,19C667.4,411.4,666,400.3,668.7,395.2z M657.8,506.7c-2.2-6.9-1.4-26.4,3-32.6c2.8,10.8-0.2,4.5-0.1,17.5
		c0,0.2-4,13.7,0.1,26.5c-0.1-0.3-1.5,4.9,0.2,12.3c-0.8-3.2-2.1-3.9-3.7-1.9c-0.1-0.2,3,6.7,3.3,4.8c0.1,2.3-1.6,0.7-0.3,4.8
		c-1-3.3-1.8,0.6-1.9,1.8c0.8,9.9,3.3,29.4-0.2,40.2C662.1,578.9,652.4,517.3,657.8,506.7z M662.6,488.6
		C662.2,487.4,661.6,485.5,662.6,488.6z M662.1,491.2C661.8,490,661.2,488.2,662.1,491.2z M662.4,484.3
		C663.7,488.4,662.5,484.5,662.4,484.3z M660.6,533C659.8,530.2,661.2,532,660.6,533z M659.3,645.3c-0.9-2.9-2.3-8.3-0.9-12.7
		C659.9,637.4,659,640.4,659.3,645.3z M658.3,620.9c1.2,3.5,1.1,7.3-0.2,11.2C658.2,628.3,658.3,624.6,658.3,620.9z M661,615.7
		c-1.3-3.9-1.2,4.1-2.9,4.6c-0.9-4.6-0.9-9.1,0-13.6C659.4,608,660.8,616.1,661,615.7z M661.2,598.9c-1.2-3.6-1.5,5.5-3.3,7.2
		C654.3,594.6,663,595.5,661.2,598.9z M661.4,601.4C660.5,598.5,662,600.2,661.4,601.4z M661.4,613.1
		C660.5,610.3,665.1,609.5,661.4,613.1z M662.8,607.7c0.4,0.5,0.2,0.7-0.4,0.7C663,608.3,663,608.3,662.8,607.7z M661.6,584.6
		c-0.2,0.4-2.2,6-0.4,2.6c-3,5.9,1.1-2.2-1.9,3.7c2.1-1.3,3-0.3,2.8,2.8c-2.2-4-3.6-3.8-4.1,0.7c-0.7-4.5-0.7-9.1,0-13.6
		c0.6,0.6,3.8,5.1,2.7,4.7C661.8,583.3,665.4,581,661.6,584.6z M672.2,634.3c0.3-0.3,0.2-0.7,0.5-1.3
		C672.8,633.4,672.6,634,672.2,634.3z M673.3,627.2c-3.7,4.4-0.3,7-1.7-14c-0.7-10.5-0.5-21.4-0.8-32c-0.6-26.1-0.2-52.3-0.7-78.4
		c0.5,1.5,0.9,3,1.4,4.5c-1.3-4-1.6-3.2-1.4-5.8C682.8,533,675.1,592.3,673.3,627.2z M684.1,507.7c-4.7-10.6-8.2-13.3-7.1-22.8
		C680.1,492.3,681.7,500.3,684.1,507.7z M684.8,511.8C686.3,504.1,686,511.4,684.8,511.8z M685.1,470.3
		C682.3,467.4,685.3,470.7,685.1,470.3z M686.6,461.2C687.1,461.3,688,461.4,686.6,461.2z M695.5,482.3c-3.3-4.4-5.3-9.5-5.9-15.3
		C691.2,471.8,693.7,477.6,695.5,482.3z M707.7,564.4c-1.1-1.8-7.4-6.5-6-9.2C704,556.3,709.4,561.2,707.7,564.4z M720.4,590.6
		c0.6,1.3-8.1-9.8-0.7-6C722.9,588.2,723.1,590.2,720.4,590.6z M730,605.4c-1.2-2.1-3.5-4.2-4.6-6.6
		C728.2,600.2,728.7,603.3,730,605.4z M732.7,583c-21.2-7.4-36-74-39.9-94.2C687.6,490.5,735.9,573.8,732.7,583z M736.8,616.9
		C737.2,616.1,737.2,616.1,736.8,616.9z M741.8,598C738.2,586.6,740.8,600,741.8,598z M745.6,627.1
		C745.8,626.5,745.8,626.5,745.6,627.1z M1004.2,423c0.5,1.7,1.5,2.6,2,4.3C1005.1,425.8,1004,424.3,1004.2,423z M986.9,368.6
		c7.1,5.2,8.6,9.5,4.7,12.7C986.4,375.4,986.4,367,986.9,368.6z M978,356C979.8,360.9,977.2,356.8,978,356z M854.9,345.8
		c0.3-2-2.9,29-9.6,36.6C846.8,369.8,850,357.6,854.9,345.8z M841.2,460C841.3,453.9,848,480.5,841.2,460z M847.8,397.7
		c0.1,8.3-0.9,15.8-1.5,24C843.8,412.7,845.4,407,847.8,397.7z M834.3,425.4C831.9,426.3,834.4,422.5,834.3,425.4z M836.6,397.4
		C836.4,396.5,836.7,397.3,836.6,397.4z M836,399.4C836,399.1,834,402.4,836,399.4z M833.3,413.5
		C834.3,402.5,834.9,422.3,833.3,413.5z M841.3,451.9C841.7,454.3,841.4,466.9,841.3,451.9z M846,422.8
		C846.5,423.1,845.3,433.3,846,422.8z M832.9,385.5c2.9-18.6,6.3-36.8,15.4-50.6c-0.8,5.2-7.1,15.2-4.6,14.4
		c-3.9,10-9.1,33.9-12.2,47.8C832,393.3,832.5,389.4,832.9,385.5z M828.9,452.3c-0.9-2.7-0.2-14.3-0.2-14.3
		c1.4,6.2,4.7,10.4,0.6,11.7c5.4,2.8,0.9,8.7,2.6,14c-0.1-0.3-1.5,4.9,0.2,12.3c-0.8-3.2-2.1-3.9-3.7-1.9c-0.1-0.2,3,6.7,3.3,4.8
		c0.1,2.3-1.6,0.7-0.3,4.8c-1-3.3-1.8,0.6-1.9,1.8c0.8,9.9,3.3,29.4-0.2,40.2C833.2,524.4,823.4,462.8,828.9,452.3z M831.7,478.6
		C830.8,475.7,832.2,477.5,831.7,478.6z M830.4,590.8c-0.9-2.9-2.3-8.3-0.9-12.7C830.9,582.9,830,585.9,830.4,590.8z M829.4,566.4
		c1.2,3.5,1.1,7.3-0.2,11.2C829.3,573.8,829.3,570.1,829.4,566.4z M832.1,561.2c-1.3-3.9-1.2,4.1-2.9,4.6c-0.9-4.6-0.9-9.1,0-13.6
		C830.5,553.6,831.8,561.6,832.1,561.2z M832.3,544.5c-1.2-3.6-1.5,5.5-3.3,7.2C825.4,540.2,834,541.1,832.3,544.5z M832.4,546.9
		C831.5,544.1,833,545.8,832.4,546.9z M832.5,558.6C831.6,555.9,836.1,555.1,832.5,558.6z M833.8,553.2c0.4,0.5,0.2,0.7-0.4,0.7
		C834,553.8,834,553.8,833.8,553.2z M832.7,530.2c-0.2,0.4-2.2,6-0.4,2.6c-3,5.9,1.1-2.2-1.9,3.7c2.1-1.3,3-0.3,2.8,2.8
		c-2.2-4-3.6-3.8-4.1,0.7c-0.7-4.5-0.7-9.1,0-13.6c0.6,0.6,3.8,5.1,2.7,4.7C832.9,528.8,836.4,526.5,832.7,530.2z M843.2,579.8
		c0.3-0.3,0.2-0.7,0.5-1.3C843.9,579,843.6,579.6,843.2,579.8z M845,543.5c0.7,11.3,0,22.9-0.8,34.2c-10.4-10.7-2.9-82-3.3-97.5
		C849,496.8,845.5,524.8,845,543.5z M848.3,431.9C847,431.2,848.3,419.2,848.3,431.9z M850,443.1C849.5,441.3,849.6,441.6,850,443.1
		z M854,455.4C851.4,445.5,855.7,452.2,854,455.4z M921.2,521.1C920.8,521.1,924.1,521.3,921.2,521.1z M921.7,522.8
		c0.7,0.4,1.3,2.1,1.6,3.2C922.6,525.6,921,524.3,921.7,522.8z M923.5,530.3c1.5,0.8,1.8,1.9,2.2,3
		C924.8,532.3,924.4,531.2,923.5,530.3z M927.3,484c-22.4,25.4-44.7,31.1-63.1-12c-16-37.6-19.4-78.5-6.8-116
		c24.5-73.2,84.1-58.2,114.3,1.5c12,23.8,14.9,33.1,4.7,55.3C968.9,429.1,941.1,479.6,927.3,484z M933.6,552.4
		c-5-3.4-6.5-6.9-4.5-10.3C933.3,542.3,934.8,545.8,933.6,552.4z M941.4,543.7c-4.7-8-9.3-19.5-9.3-27.3
		C934.9,525.5,939.7,535.4,941.4,543.7z M960.8,566C961.1,565.4,961.1,565.4,960.8,566z M1003.6,514c-4.4,28.1-5.7,76.5-40.9,49.1
		c-25.4-19.8-29.3-42.4-16.1-66.8c4.5-8.3,46-68.5,50.7-66.1C1007.4,451.2,1008,493.1,1003.6,514z M1012.2,471.2
		c-0.9-0.9-0.5-1.7-0.2-2.4C1012.2,469.3,1012.5,470.4,1012.2,471.2z M1012.2,465.6c-1.3-2.1-1.8-3.7-1-5.2
		C1013,462.2,1012.3,463.7,1012.2,465.6z M1012.9,456.1c2.2,0.8-12.8-16-6.5-28.2c4.1,4.2,6.8,10.8,7.7,22.3
		C1008.8,444.7,1012.8,455.1,1012.9,456.1C1013.7,454.6,1020.6,460,1012.9,456.1z M1023.7,429.8c3.2,13.3,2.7,27,4.1,40.1
		c-9.2-12.6-11.4-53.6-13.4-67.4C1015.6,402.1,1023.9,430.3,1023.7,429.8z"/>
</g>
</svg>
