<?xml version="1.0" encoding="utf-8"?>
<!-- Generator: Adobe Illustrator 21.0.2, SVG Export Plug-In . SVG Version: 6.00 Build 0)  -->
<svg version="1.1" id="Layer_1" xmlns="http://www.w3.org/2000/svg" xmlns:xlink="http://www.w3.org/1999/xlink" x="0px" y="0px"
	 viewBox="0 0 38.8 38.8" style="enable-background:new 0 0 38.8 38.8;" xml:space="preserve">
<style type="text/css">
	.st0{fill:#FFFFFF;}
</style>
<path class="st0" d="M38.8,19.4c0,3.9,0,6.5-0.1,8c-0.2,3.5-1.2,6.2-3.1,8.1c-1.9,1.9-4.6,3-8.1,3.1c-1.5,0.1-4.2,0.1-8,0.1
	c-3.9,0-6.5,0-8-0.1c-3.5-0.2-6.2-1.2-8.1-3.1c-1.9-1.9-3-4.6-3.1-8.1C0,25.9,0,23.3,0,19.4s0-6.5,0.1-8c0.2-3.5,1.2-6.2,3.1-8.1
	s4.6-3,8.1-3.1C12.9,0,15.6,0,19.4,0c3.9,0,6.5,0,8,0.1c3.5,0.2,6.2,1.2,8.1,3.1s3,4.6,3.1,8.1C38.8,12.9,38.8,15.6,38.8,19.4z
	 M21.4,3.5c-1.2,0-1.8,0-1.9,0c-0.1,0-0.8,0-1.9,0c-1.2,0-2.1,0-2.7,0c-0.6,0-1.4,0-2.4,0.1c-1,0-1.9,0.1-2.6,0.3
	C9.1,3.9,8.5,4.1,8,4.3C7.1,4.6,6.4,5.1,5.7,5.7C5.1,6.4,4.6,7.1,4.3,8C4.1,8.5,3.9,9.1,3.8,9.8c-0.1,0.7-0.2,1.6-0.3,2.6
	c0,1-0.1,1.8-0.1,2.4c0,0.6,0,1.5,0,2.7c0,1.2,0,1.8,0,1.9s0,0.8,0,1.9c0,1.2,0,2.1,0,2.7c0,0.6,0,1.4,0.1,2.4c0,1,0.1,1.9,0.3,2.6
	c0.1,0.7,0.3,1.3,0.5,1.8c0.3,0.8,0.8,1.6,1.5,2.2c0.6,0.6,1.4,1.1,2.2,1.5c0.5,0.2,1.1,0.3,1.8,0.5c0.7,0.1,1.6,0.2,2.6,0.3
	c1,0,1.8,0.1,2.4,0.1c0.6,0,1.5,0,2.7,0c1.2,0,1.8,0,1.9,0c0.1,0,0.8,0,1.9,0c1.2,0,2.1,0,2.7,0c0.6,0,1.4,0,2.4-0.1
	c1,0,1.9-0.1,2.6-0.3c0.7-0.1,1.3-0.3,1.8-0.5c0.8-0.3,1.6-0.8,2.2-1.5c0.6-0.6,1.1-1.4,1.5-2.2c0.2-0.5,0.3-1.1,0.5-1.8
	c0.1-0.7,0.2-1.6,0.3-2.6c0-1,0.1-1.8,0.1-2.4c0-0.6,0-1.5,0-2.7c0-1.2,0-1.8,0-1.9s0-0.8,0-1.9c0-1.2,0-2.1,0-2.7
	c0-0.6,0-1.4-0.1-2.4c0-1-0.1-1.9-0.3-2.6c-0.1-0.7-0.3-1.3-0.5-1.8c-0.3-0.8-0.8-1.6-1.5-2.2c-0.6-0.6-1.4-1.1-2.2-1.5
	c-0.5-0.2-1.1-0.3-1.8-0.5c-0.7-0.1-1.6-0.2-2.6-0.3c-1,0-1.8-0.1-2.4-0.1C23.4,3.5,22.5,3.5,21.4,3.5z M26.5,12.4
	c1.9,1.9,2.9,4.3,2.9,7.1c0,2.8-1,5.1-2.9,7.1c-1.9,1.9-4.3,2.9-7.1,2.9s-5.1-1-7.1-2.9c-1.9-1.9-2.9-4.3-2.9-7.1
	c0-2.8,1-5.1,2.9-7.1c1.9-1.9,4.3-2.9,7.1-2.9S24.5,10.4,26.5,12.4z M24,24c1.3-1.3,1.9-2.8,1.9-4.6s-0.6-3.3-1.9-4.6
	s-2.8-1.9-4.6-1.9s-3.3,0.6-4.6,1.9s-1.9,2.8-1.9,4.6s0.6,3.3,1.9,4.6c1.3,1.3,2.8,1.9,4.6,1.9S22.7,25.3,24,24z M31.4,7.4
	c0.5,0.5,0.7,1,0.7,1.6s-0.2,1.2-0.7,1.6s-1,0.7-1.6,0.7c-0.6,0-1.2-0.2-1.6-0.7s-0.7-1-0.7-1.6s0.2-1.2,0.7-1.6s1-0.7,1.6-0.7
	C30.4,6.7,31,7,31.4,7.4z"/>
</svg>
