<?xml version="1.0" encoding="utf-8"?>
<!-- Generator: Adobe Illustrator 21.0.2, SVG Export Plug-In . SVG Version: 6.00 Build 0)  -->
<svg version="1.1" id="Layer_1" xmlns="http://www.w3.org/2000/svg" xmlns:xlink="http://www.w3.org/1999/xlink" x="0px" y="0px"
	 viewBox="0 0 334.6 379.6" style="enable-background:new 0 0 334.6 379.6;" xml:space="preserve">
<style type="text/css">
	.st0{fill:none;stroke:#FFFFFF;stroke-width:11.4794;stroke-miterlimit:10;}
	.st1{fill:none;stroke:#002336;stroke-width:7.6821;stroke-miterlimit:10;}
	.st2{fill:none;stroke:#002336;stroke-width:6.1216;stroke-miterlimit:10;}
	.st3{fill:#00F1C6;stroke:#002336;stroke-width:13.9095;stroke-miterlimit:10;}
</style>
<path id="blue_25_" class="st0" d="M321.8,97.1L175.8,9.9c-3.5-2.1-7.9-2.2-11.5-0.2L15.7,92.5c-3.6,2-5.8,5.7-5.9,9.8L7.3,272.4
	c-0.1,4.1,2.1,7.9,5.6,10l145.9,87.3c3.5,2.1,7.9,2.2,11.5,0.2l148.6-82.8c3.6-2,5.8-5.7,5.9-9.8l2.6-170.1
	C327.4,103,325.3,99.2,321.8,97.1z"/>
<g>
	<g>
		<line class="st1" x1="168" y1="67.9" x2="168" y2="100.9"/>
		<line class="st1" x1="83.6" y1="190.9" x2="45" y2="190.9"/>
		<line class="st1" x1="254.9" y1="103.9" x2="231.7" y2="126.9"/>
		<line class="st1" x1="105" y1="128.4" x2="81" y2="103.9"/>
		<g>
			<line class="st2" x1="210.1" y1="99.7" x2="205" y2="110.8"/>
			<line class="st2" x1="259.3" y1="229.2" x2="247" y2="224.6"/>
			<line class="st2" x1="261.6" y1="154.3" x2="251.5" y2="158.2"/>
			<line class="st2" x1="138.6" y1="107" x2="135.2" y2="97.4"/>
			<line class="st2" x1="92" y1="218.5" x2="78.4" y2="223.8"/>
			<line class="st2" x1="92" y1="153.6" x2="80.6" y2="148.8"/>
		</g>
		<line class="st1" x1="110.3" y1="248.2" x2="81" y2="277.8"/>
		<line class="st1" x1="290.9" y1="190.9" x2="257.6" y2="190.9"/>
		<line class="st1" x1="254.9" y1="277.8" x2="227.1" y2="250.5"/>
	</g>
	<g id="Icons_-_V2_2_">
		<g>
			<g>
				<rect x="143.2" y="265.6" class="st3" width="51.2" height="12.8"/>
				<rect x="156" y="284.9" class="st3" width="25.6" height="12.8"/>
				<path class="st1" d="M169,124.8c-31.8,0-57.6,25.8-57.6,57.6c0,15.9,6.4,30.3,16.9,40.7l8.1,8.2c4.5,4.6,7.2,10.9,7.2,17.9v10
					h50.9v-10c0-6.9,2.7-13.2,7.2-17.9l8.1-8.2c10.4-10.4,16.9-24.8,16.9-40.7C226.6,150.6,200.8,124.8,169,124.8z"/>
			</g>
		</g>
	</g>
</g>
</svg>
