<?xml version="1.0" encoding="utf-8"?>
<!-- Generator: Adobe Illustrator 21.0.2, SVG Export Plug-In . SVG Version: 6.00 Build 0)  -->
<svg version="1.1" id="Layer_1" xmlns="http://www.w3.org/2000/svg" xmlns:xlink="http://www.w3.org/1999/xlink" x="0px" y="0px"
	 viewBox="0 0 219.6 46.7" style="enable-background:new 0 0 219.6 46.7;" xml:space="preserve">
<style type="text/css">
	.st0{fill:#00B0A9;}
	.st1{fill:#FFFFFF;}
</style>
<g>
	<g>
		<g>
			<path class="st0" d="M88.6,30.7V41H88v-1.9c-0.3,0.6-0.7,1.1-1.2,1.4c-0.5,0.3-1.2,0.5-1.9,0.5c-0.7,0-1.3-0.2-1.8-0.5
				c-0.5-0.3-1-0.8-1.3-1.3c-0.3-0.6-0.5-1.2-0.5-1.9c0-0.7,0.2-1.3,0.5-1.9c0.3-0.6,0.7-1,1.3-1.3c0.5-0.3,1.1-0.5,1.8-0.5
				c0.7,0,1.3,0.2,1.9,0.5c0.5,0.3,0.9,0.8,1.2,1.4v-5H88.6z M86.6,40.1c0.5-0.3,0.8-0.6,1.1-1.1c0.3-0.5,0.4-1,0.4-1.6
				c0-0.6-0.1-1.1-0.4-1.6c-0.3-0.5-0.6-0.8-1.1-1.1c-0.5-0.3-1-0.4-1.6-0.4c-0.6,0-1.1,0.1-1.6,0.4c-0.5,0.3-0.8,0.6-1.1,1.1
				c-0.3,0.5-0.4,1-0.4,1.6c0,0.6,0.1,1.1,0.4,1.6c0.3,0.5,0.6,0.8,1.1,1.1c0.5,0.3,1,0.4,1.6,0.4C85.6,40.5,86.1,40.4,86.6,40.1z"
				/>
			<path class="st0" d="M95.9,34.2c0.5,0.3,0.9,0.8,1.2,1.3c0.3,0.6,0.4,1.2,0.4,2h-6.4c0,0.6,0.2,1.1,0.4,1.5
				c0.3,0.4,0.6,0.8,1.1,1c0.4,0.2,0.9,0.4,1.5,0.4c0.5,0,1-0.1,1.4-0.3c0.4-0.2,0.8-0.4,1.1-0.7l0.3,0.4c-0.3,0.4-0.8,0.7-1.2,0.9
				c-0.5,0.2-1,0.3-1.6,0.3c-0.7,0-1.3-0.2-1.8-0.5c-0.5-0.3-1-0.7-1.3-1.3c-0.3-0.6-0.5-1.2-0.5-1.9c0-0.7,0.2-1.3,0.5-1.9
				c0.3-0.6,0.7-1,1.3-1.3c0.5-0.3,1.1-0.5,1.8-0.5C94.8,33.7,95.4,33.9,95.9,34.2z M96.9,37c-0.1-0.8-0.3-1.5-0.9-2
				c-0.5-0.5-1.2-0.8-2-0.8c-0.8,0-1.5,0.3-2,0.8c-0.5,0.5-0.8,1.2-0.9,2H96.9z"/>
			<path class="st0" d="M101,34.3c-0.5,0-1,0.1-1.3,0.3c-0.3,0.2-0.5,0.5-0.5,0.9c0,0.3,0.1,0.5,0.3,0.7c0.2,0.2,0.4,0.3,0.6,0.4
				c0.3,0.1,0.6,0.2,1,0.3c0.5,0.2,0.9,0.3,1.2,0.4c0.3,0.1,0.6,0.3,0.8,0.6c0.2,0.3,0.3,0.6,0.3,1c0,0.6-0.2,1.1-0.7,1.5
				c-0.5,0.3-1.1,0.5-1.8,0.5c-0.5,0-1-0.1-1.5-0.3c-0.5-0.2-0.9-0.4-1.2-0.7l0.3-0.4c0.3,0.3,0.7,0.5,1.1,0.7
				c0.4,0.2,0.9,0.2,1.3,0.2c0.6,0,1-0.1,1.4-0.3c0.4-0.2,0.6-0.6,0.6-1c0-0.3-0.1-0.5-0.3-0.7c-0.2-0.2-0.4-0.3-0.6-0.5
				c-0.3-0.1-0.6-0.2-1-0.4c-0.5-0.2-0.9-0.3-1.2-0.4c-0.3-0.1-0.6-0.3-0.8-0.6c-0.2-0.3-0.3-0.6-0.3-1c0-0.6,0.2-1.1,0.7-1.4
				c0.5-0.3,1-0.5,1.7-0.5c0.8,0,1.5,0.2,2.1,0.6l-0.3,0.5C102.3,34.4,101.7,34.3,101,34.3z"/>
			<path class="st0" d="M105.7,31.3c0.1,0.1,0.1,0.2,0.1,0.4c0,0.1,0,0.3-0.1,0.4c-0.1,0.1-0.2,0.1-0.3,0.1s-0.2,0-0.3-0.1
				c-0.1-0.1-0.1-0.2-0.1-0.4c0-0.1,0-0.3,0.1-0.4c0.1-0.1,0.2-0.1,0.3-0.1S105.6,31.2,105.7,31.3z M105.1,33.7h0.6V41h-0.6V33.7z"
				/>
			<path class="st0" d="M114.4,33.7v6.5c0,0.7-0.1,1.3-0.4,1.9c-0.3,0.5-0.7,0.9-1.2,1.2c-0.5,0.3-1.1,0.4-1.9,0.4
				c-0.6,0-1.1-0.1-1.6-0.3s-0.9-0.5-1.4-0.9l0.3-0.4c0.4,0.4,0.8,0.6,1.2,0.8c0.4,0.2,0.9,0.3,1.4,0.3c0.9,0,1.6-0.3,2.2-0.8
				c0.5-0.5,0.8-1.3,0.8-2.2v-1.4c-0.3,0.6-0.6,1-1.2,1.4c-0.5,0.3-1.1,0.5-1.8,0.5c-0.6,0-1.2-0.1-1.7-0.4
				c-0.5-0.3-0.9-0.7-1.2-1.2c-0.3-0.5-0.4-1.1-0.4-1.8c0-0.7,0.1-1.3,0.4-1.8s0.7-0.9,1.2-1.2c0.5-0.3,1.1-0.5,1.7-0.5
				c0.7,0,1.3,0.2,1.8,0.5s0.9,0.8,1.2,1.4v-1.9H114.4z M112.4,39.8c0.4-0.3,0.8-0.6,1-1.1s0.4-1,0.4-1.5c0-0.6-0.1-1.1-0.4-1.5
				s-0.6-0.8-1-1.1c-0.4-0.3-0.9-0.4-1.5-0.4s-1,0.1-1.5,0.4c-0.4,0.3-0.8,0.6-1,1.1s-0.4,1-0.4,1.5c0,0.6,0.1,1.1,0.4,1.5
				s0.6,0.8,1,1.1c0.4,0.3,0.9,0.4,1.5,0.4C111.5,40.2,112,40.1,112.4,39.8z"/>
			<path class="st0" d="M122.5,34.5c0.5,0.5,0.7,1.2,0.7,2.1V41h-0.6v-4.3c0-0.7-0.2-1.3-0.6-1.7c-0.4-0.4-1-0.6-1.7-0.6
				c-0.8,0-1.5,0.3-2,0.8c-0.5,0.5-0.8,1.2-0.8,2V41h-0.6v-7.3h0.6v1.9c0.2-0.6,0.6-1.1,1.1-1.4c0.5-0.3,1.1-0.5,1.8-0.5
				C121.3,33.7,122,34,122.5,34.5z"/>
			<path class="st0" d="M130.2,34.2c0.5,0.3,0.9,0.8,1.2,1.3c0.3,0.6,0.4,1.2,0.4,2h-6.4c0,0.6,0.2,1.1,0.4,1.5
				c0.3,0.4,0.6,0.8,1.1,1c0.4,0.2,0.9,0.4,1.5,0.4c0.5,0,1-0.1,1.4-0.3s0.8-0.4,1.1-0.7l0.3,0.4c-0.3,0.4-0.8,0.7-1.2,0.9
				c-0.5,0.2-1,0.3-1.6,0.3c-0.7,0-1.3-0.2-1.8-0.5c-0.5-0.3-1-0.7-1.3-1.3s-0.5-1.2-0.5-1.9c0-0.7,0.2-1.3,0.5-1.9
				c0.3-0.6,0.7-1,1.3-1.3c0.5-0.3,1.1-0.5,1.8-0.5C129.1,33.7,129.7,33.9,130.2,34.2z M131.2,37c-0.1-0.8-0.3-1.5-0.9-2
				c-0.5-0.5-1.2-0.8-2-0.8c-0.8,0-1.5,0.3-2,0.8c-0.5,0.5-0.8,1.2-0.9,2H131.2z"/>
			<path class="st0" d="M135.2,34.2c0.5-0.3,1-0.5,1.7-0.5v0.6c-0.8,0-1.4,0.2-1.9,0.7c-0.5,0.5-0.7,1.2-0.8,2V41h-0.6v-7.3h0.6v1.8
				C134.4,35,134.7,34.5,135.2,34.2z"/>
			<path class="st0" d="M146.6,36.3v0.5H144v2.6h-0.4v-2.6H141v-0.5h2.6v-2.6h0.4v2.6H146.6z"/>
			<path class="st0" d="M158.5,30.7V41h-0.6v-1.9c-0.3,0.6-0.7,1.1-1.2,1.4c-0.5,0.3-1.2,0.5-1.9,0.5c-0.7,0-1.3-0.2-1.8-0.5
				c-0.5-0.3-1-0.8-1.3-1.3c-0.3-0.6-0.5-1.2-0.5-1.9c0-0.7,0.2-1.3,0.5-1.9c0.3-0.6,0.7-1,1.3-1.3c0.5-0.3,1.1-0.5,1.8-0.5
				c0.7,0,1.3,0.2,1.9,0.5c0.5,0.3,0.9,0.8,1.2,1.4v-5H158.5z M156.5,40.1c0.5-0.3,0.8-0.6,1.1-1.1c0.3-0.5,0.4-1,0.4-1.6
				c0-0.6-0.1-1.1-0.4-1.6c-0.3-0.5-0.6-0.8-1.1-1.1c-0.5-0.3-1-0.4-1.6-0.4c-0.6,0-1.1,0.1-1.6,0.4c-0.5,0.3-0.8,0.6-1.1,1.1
				c-0.3,0.5-0.4,1-0.4,1.6c0,0.6,0.1,1.1,0.4,1.6c0.3,0.5,0.6,0.8,1.1,1.1c0.5,0.3,1,0.4,1.6,0.4C155.5,40.5,156,40.4,156.5,40.1z"
				/>
			<path class="st0" d="M165.8,34.2c0.5,0.3,0.9,0.8,1.2,1.3c0.3,0.6,0.4,1.2,0.4,2H161c0,0.6,0.2,1.1,0.4,1.5
				c0.3,0.4,0.6,0.8,1.1,1c0.4,0.2,0.9,0.4,1.5,0.4c0.5,0,1-0.1,1.4-0.3c0.4-0.2,0.8-0.4,1.1-0.7l0.3,0.4c-0.3,0.4-0.8,0.7-1.2,0.9
				c-0.5,0.2-1,0.3-1.6,0.3c-0.7,0-1.3-0.2-1.8-0.5c-0.5-0.3-1-0.7-1.3-1.3c-0.3-0.6-0.5-1.2-0.5-1.9c0-0.7,0.2-1.3,0.5-1.9
				c0.3-0.6,0.7-1,1.3-1.3c0.5-0.3,1.1-0.5,1.8-0.5C164.7,33.7,165.3,33.9,165.8,34.2z M166.8,37c-0.1-0.8-0.3-1.5-0.9-2
				c-0.5-0.5-1.2-0.8-2-0.8c-0.8,0-1.5,0.3-2,0.8c-0.5,0.5-0.8,1.2-0.9,2H166.8z"/>
			<path class="st0" d="M167.6,33.7h0.6l2.6,6.6l2.6-6.6h0.6l-2.9,7.3h-0.6L167.6,33.7z"/>
			<path class="st0" d="M179.6,34.2c0.5,0.3,0.9,0.8,1.2,1.3c0.3,0.6,0.4,1.2,0.4,2h-6.4c0,0.6,0.2,1.1,0.4,1.5
				c0.3,0.4,0.6,0.8,1.1,1c0.4,0.2,0.9,0.4,1.5,0.4c0.5,0,1-0.1,1.4-0.3c0.4-0.2,0.8-0.4,1.1-0.7l0.3,0.4c-0.3,0.4-0.8,0.7-1.2,0.9
				c-0.5,0.2-1,0.3-1.6,0.3c-0.7,0-1.3-0.2-1.8-0.5c-0.5-0.3-1-0.7-1.3-1.3c-0.3-0.6-0.5-1.2-0.5-1.9c0-0.7,0.2-1.3,0.5-1.9
				c0.3-0.6,0.7-1,1.3-1.3c0.5-0.3,1.1-0.5,1.8-0.5C178.5,33.7,179.1,33.9,179.6,34.2z M180.6,37c-0.1-0.8-0.3-1.5-0.9-2
				c-0.5-0.5-1.2-0.8-2-0.8c-0.8,0-1.5,0.3-2,0.8c-0.5,0.5-0.8,1.2-0.9,2H180.6z"/>
			<path class="st0" d="M183,30.7h0.6V41H183V30.7z"/>
			<path class="st0" d="M191,34.2c0.5,0.3,1,0.7,1.3,1.3c0.3,0.6,0.5,1.2,0.5,1.9c0,0.7-0.2,1.3-0.5,1.9c-0.3,0.6-0.7,1-1.3,1.3
				c-0.5,0.3-1.2,0.5-1.8,0.5c-0.7,0-1.3-0.2-1.8-0.5c-0.5-0.3-1-0.7-1.3-1.3c-0.3-0.6-0.5-1.2-0.5-1.9c0-0.7,0.2-1.3,0.5-1.9
				c0.3-0.6,0.7-1,1.3-1.3c0.5-0.3,1.2-0.5,1.8-0.5C189.8,33.7,190.4,33.9,191,34.2z M187.6,34.7c-0.5,0.3-0.8,0.6-1.1,1.1
				c-0.3,0.5-0.4,1-0.4,1.6c0,0.6,0.1,1.1,0.4,1.6c0.3,0.5,0.6,0.8,1.1,1.1c0.5,0.3,1,0.4,1.5,0.4c0.6,0,1.1-0.1,1.6-0.4
				c0.5-0.3,0.8-0.6,1.1-1.1c0.3-0.5,0.4-1,0.4-1.6c0-0.6-0.1-1.1-0.4-1.6c-0.3-0.5-0.6-0.8-1.1-1.1c-0.5-0.3-1-0.4-1.6-0.4
				C188.5,34.3,188,34.4,187.6,34.7z"/>
			<path class="st0" d="M200.1,34.2c0.5,0.3,1,0.7,1.2,1.3c0.3,0.6,0.4,1.2,0.4,1.9c0,0.7-0.1,1.3-0.4,1.9c-0.3,0.6-0.7,1-1.2,1.3
				S199,41,198.3,41c-0.7,0-1.3-0.2-1.9-0.5c-0.5-0.3-0.9-0.8-1.2-1.4v4.6h-0.6v-10h0.6v1.9c0.3-0.6,0.7-1.1,1.2-1.4
				c0.5-0.3,1.2-0.5,1.9-0.5C199,33.7,199.6,33.9,200.1,34.2z M199.8,40.1c0.5-0.3,0.8-0.6,1.1-1.1c0.3-0.5,0.4-1,0.4-1.6
				c0-0.6-0.1-1.1-0.4-1.6c-0.3-0.5-0.6-0.8-1.1-1.1c-0.5-0.3-1-0.4-1.6-0.4c-0.6,0-1.1,0.1-1.5,0.4c-0.5,0.3-0.8,0.6-1.1,1.1
				c-0.3,0.5-0.4,1-0.4,1.6c0,0.6,0.1,1.1,0.4,1.6c0.3,0.5,0.6,0.8,1.1,1.1c0.5,0.3,1,0.4,1.5,0.4C198.8,40.5,199.3,40.3,199.8,40.1
				z"/>
			<path class="st0" d="M208.2,34.2c0.5,0.3,0.9,0.8,1.2,1.3c0.3,0.6,0.4,1.2,0.4,2h-6.3c0,0.6,0.2,1.1,0.4,1.5
				c0.3,0.4,0.6,0.8,1.1,1c0.4,0.2,0.9,0.4,1.5,0.4c0.5,0,1-0.1,1.4-0.3c0.4-0.2,0.8-0.4,1.1-0.7l0.3,0.4c-0.3,0.4-0.8,0.7-1.2,0.9
				c-0.5,0.2-1,0.3-1.6,0.3c-0.7,0-1.3-0.2-1.8-0.5c-0.5-0.3-1-0.7-1.3-1.3c-0.3-0.6-0.5-1.2-0.5-1.9c0-0.7,0.2-1.3,0.5-1.9
				c0.3-0.6,0.7-1,1.3-1.3c0.5-0.3,1.1-0.5,1.8-0.5C207.1,33.7,207.7,33.9,208.2,34.2z M209.2,37c-0.1-0.8-0.3-1.5-0.9-2
				c-0.5-0.5-1.2-0.8-2-0.8c-0.8,0-1.5,0.3-2,0.8c-0.5,0.5-0.8,1.2-0.9,2H209.2z"/>
			<path class="st0" d="M213.2,34.2c0.5-0.3,1-0.5,1.7-0.5v0.6c-0.8,0-1.4,0.2-1.9,0.7c-0.5,0.5-0.7,1.2-0.8,2V41h-0.6v-7.3h0.6v1.8
				C212.4,35,212.7,34.5,213.2,34.2z"/>
		</g>
	</g>
	<g>
		<g>
			<path class="st1" d="M80.9,10.8H82l4.5,11.5L91,10.8h1.1L87,23.3h-1L80.9,10.8z"/>
			<path class="st1" d="M101.9,23.3l0-2.5c-0.5,0.9-1.2,1.5-2.1,1.9c-0.9,0.4-1.8,0.6-2.9,0.6c-0.8,0-1.5-0.2-2.2-0.5
				c-0.6-0.3-1.1-0.8-1.5-1.3c-0.3-0.6-0.5-1.2-0.5-1.9c0-1,0.4-1.9,1.3-2.5c0.8-0.6,2-0.9,3.4-0.9h4.5v-1.2c0-1.1-0.3-1.9-1-2.5
				c-0.6-0.6-1.6-0.9-2.8-0.9c-0.8,0-1.5,0.1-2.1,0.4c-0.7,0.3-1.4,0.7-2.1,1.2l-0.5-0.8c0.8-0.6,1.6-1,2.4-1.3
				c0.8-0.3,1.6-0.4,2.5-0.4c1.5,0,2.6,0.4,3.4,1.1c0.8,0.8,1.2,1.8,1.2,3.1l0,8.3H101.9z M100.1,21.6c0.8-0.5,1.4-1.3,1.8-2.4v-2
				h-4.4c-1.2,0-2.2,0.2-2.8,0.6c-0.6,0.4-1,1-1,1.8c0,0.8,0.3,1.5,0.9,2c0.6,0.5,1.4,0.8,2.4,0.8C98.2,22.4,99.2,22.2,100.1,21.6z"
				/>
			<path class="st1" d="M116.7,12.1c0.9,0.9,1.3,2.1,1.3,3.6v7.7h-1v-7.5c0-1.3-0.4-2.3-1.1-3c-0.7-0.7-1.7-1.1-3-1.1
				c-1.4,0-2.6,0.5-3.4,1.3c-0.9,0.8-1.3,2-1.5,3.5v6.8h-1V10.8h1V14c0.4-1,1.1-1.8,1.9-2.4c0.9-0.5,1.9-0.8,3.2-0.9
				C114.6,10.8,115.8,11.2,116.7,12.1z"/>
			<path class="st1" d="M130,11.6c0.9,0.6,1.6,1.3,2,2.3c0.5,1,0.7,2.1,0.7,3.4h-10.9c0,1,0.3,1.9,0.7,2.7c0.4,0.8,1.1,1.4,1.8,1.8
				s1.6,0.6,2.6,0.6c0.9,0,1.6-0.1,2.4-0.4c0.7-0.3,1.4-0.7,1.9-1.3l0.6,0.6c-0.6,0.6-1.3,1.1-2.1,1.5c-0.8,0.3-1.7,0.5-2.7,0.5
				c-1.2,0-2.2-0.3-3.2-0.8c-0.9-0.5-1.7-1.3-2.2-2.2c-0.5-1-0.8-2-0.8-3.2s0.3-2.3,0.8-3.2c0.5-1,1.3-1.7,2.2-2.2
				c0.9-0.5,2-0.8,3.1-0.8C128.1,10.8,129.1,11,130,11.6z M131.8,16.4c-0.1-1.4-0.6-2.6-1.5-3.5c-0.9-0.9-2-1.3-3.4-1.3
				c-1.4,0-2.6,0.4-3.5,1.3c-0.9,0.9-1.5,2-1.6,3.5H131.8z"/>
			<path class="st1" d="M138.7,11.7c-0.9,0-1.7,0.2-2.3,0.5c-0.6,0.4-0.9,0.9-0.9,1.6c0,0.5,0.1,0.9,0.4,1.2
				c0.3,0.3,0.6,0.6,1.1,0.7c0.4,0.2,1,0.4,1.8,0.6c0.9,0.3,1.6,0.5,2.1,0.8c0.5,0.2,1,0.6,1.4,1c0.4,0.4,0.6,1,0.6,1.8
				c0,1.1-0.4,1.9-1.3,2.5c-0.8,0.6-1.9,0.9-3.1,0.9c-0.9,0-1.7-0.2-2.5-0.5c-0.8-0.3-1.5-0.7-2.1-1.3l0.5-0.8
				c0.5,0.5,1.2,0.9,1.9,1.2c0.7,0.3,1.5,0.4,2.3,0.4c1,0,1.8-0.2,2.4-0.6c0.6-0.4,0.9-1,0.9-1.8c0-0.5-0.1-0.9-0.4-1.3
				s-0.7-0.6-1.1-0.8c-0.4-0.2-1.1-0.4-1.8-0.6c-0.9-0.3-1.6-0.5-2.1-0.8c-0.5-0.2-1-0.6-1.3-1c-0.4-0.4-0.6-1-0.6-1.7
				c0-1,0.4-1.8,1.2-2.4c0.8-0.5,1.8-0.8,2.9-0.8c1.3,0,2.5,0.3,3.6,1l-0.4,0.8C141,12,139.9,11.7,138.7,11.7z"/>
			<path class="st1" d="M148.8,11.7c-0.9,0-1.7,0.2-2.3,0.5c-0.6,0.4-0.9,0.9-0.9,1.6c0,0.5,0.1,0.9,0.4,1.2
				c0.3,0.3,0.6,0.6,1.1,0.7c0.4,0.2,1,0.4,1.8,0.6c0.9,0.3,1.6,0.5,2.1,0.8c0.5,0.2,1,0.6,1.4,1c0.4,0.4,0.6,1,0.6,1.8
				c0,1.1-0.4,1.9-1.3,2.5c-0.8,0.6-1.9,0.9-3.1,0.9c-0.9,0-1.7-0.2-2.5-0.5c-0.8-0.3-1.5-0.7-2.1-1.3l0.5-0.8
				c0.5,0.5,1.2,0.9,1.9,1.2c0.7,0.3,1.5,0.4,2.3,0.4c1,0,1.8-0.2,2.4-0.6c0.6-0.4,0.9-1,0.9-1.8c0-0.5-0.1-0.9-0.4-1.3
				s-0.7-0.6-1.1-0.8c-0.4-0.2-1.1-0.4-1.8-0.6c-0.9-0.3-1.6-0.5-2.1-0.8c-0.5-0.2-1-0.6-1.3-1c-0.4-0.4-0.6-1-0.6-1.7
				c0-1,0.4-1.8,1.2-2.4c0.8-0.5,1.8-0.8,2.9-0.8c1.3,0,2.5,0.3,3.6,1l-0.4,0.8C151,12,149.9,11.7,148.8,11.7z"/>
			<path class="st1" d="M163.9,23.3l0-2.5c-0.5,0.9-1.2,1.5-2.1,1.9c-0.9,0.4-1.8,0.6-2.9,0.6c-0.8,0-1.5-0.2-2.2-0.5
				c-0.6-0.3-1.1-0.8-1.5-1.3c-0.3-0.6-0.5-1.2-0.5-1.9c0-1,0.4-1.9,1.3-2.5c0.8-0.6,2-0.9,3.4-0.9h4.5v-1.2c0-1.1-0.3-1.9-1-2.5
				c-0.6-0.6-1.6-0.9-2.8-0.9c-0.8,0-1.5,0.1-2.1,0.4c-0.7,0.3-1.4,0.7-2.1,1.2l-0.5-0.8c0.8-0.6,1.6-1,2.4-1.3
				c0.8-0.3,1.6-0.4,2.5-0.4c1.5,0,2.6,0.4,3.4,1.1c0.8,0.8,1.2,1.8,1.2,3.1l0,8.3H163.9z M162.1,21.6c0.8-0.5,1.4-1.3,1.8-2.4v-2
				h-4.4c-1.2,0-2.2,0.2-2.8,0.6c-0.6,0.4-1,1-1,1.8c0,0.8,0.3,1.5,0.9,2c0.6,0.5,1.4,0.8,2.4,0.8C160.2,22.4,161.3,22.2,162.1,21.6
				z"/>
			<path class="st1" d="M172.7,11.3c0.8-0.5,1.7-0.7,2.7-0.7v2.2c-1.3,0-2.4,0.3-3.2,1c-0.8,0.7-1.3,1.7-1.4,2.9v6.7h-2.2V10.6h2.2
				v2.7C171.4,12.4,172,11.7,172.7,11.3z"/>
			<path class="st1" d="M188.7,10.6v12.7h-2.3v-2.7c-0.8,1.8-2.4,2.7-4.7,2.8c-1.5,0-2.6-0.4-3.5-1.3c-0.8-0.9-1.3-2.1-1.3-3.6v-7.9
				h2.3v7.3c0,1.1,0.3,1.9,0.9,2.5c0.6,0.6,1.4,0.9,2.4,0.9c1.2,0,2.1-0.4,2.8-1.3c0.7-0.8,1-1.9,1-3.2v-6.3H188.7z"/>
			<path class="st1" d="M197.8,12.6c-0.6-0.2-1.2-0.3-1.8-0.3c-0.7,0-1.2,0.1-1.6,0.4c-0.4,0.2-0.6,0.6-0.6,1.1
				c0,0.5,0.2,0.9,0.7,1.2c0.5,0.3,1.2,0.5,2.1,0.8c0.9,0.3,1.6,0.5,2.2,0.8c0.6,0.3,1,0.6,1.4,1.1c0.4,0.5,0.6,1.2,0.6,2
				c0,1.2-0.5,2.1-1.4,2.7c-0.9,0.6-2,0.9-3.4,0.9c-0.9,0-1.9-0.2-2.8-0.5s-1.6-0.7-2.3-1.3l0.8-1.6c0.5,0.5,1.2,0.9,2,1.2
				c0.8,0.3,1.5,0.4,2.3,0.4c0.7,0,1.3-0.1,1.8-0.4c0.4-0.3,0.7-0.7,0.7-1.3c0-0.6-0.2-1-0.7-1.3c-0.5-0.3-1.2-0.6-2.2-0.9
				c-0.9-0.2-1.5-0.5-2.1-0.7c-0.5-0.2-1-0.6-1.4-1.1c-0.4-0.5-0.6-1.1-0.6-1.9c0-1.2,0.4-2.1,1.3-2.7c0.9-0.6,1.9-0.9,3.2-0.9
				c0.8,0,1.5,0.1,2.3,0.3c0.7,0.2,1.4,0.5,1.9,0.9l-0.8,1.7C199,13.1,198.4,12.8,197.8,12.6z"/>
			<path class="st1" d="M214.4,10.6v12.7h-2.3v-2.7c-0.8,1.8-2.4,2.7-4.7,2.8c-1.5,0-2.6-0.4-3.5-1.3s-1.3-2.1-1.3-3.6v-7.9h2.3v7.3
				c0,1.1,0.3,1.9,0.9,2.5c0.6,0.6,1.4,0.9,2.4,0.9c1.2,0,2.1-0.4,2.8-1.3c0.7-0.8,1-1.9,1-3.2v-6.3H214.4z"/>
		</g>
	</g>
	<path class="st1" d="M69.1,32.6c-1,0.6-2.1,0.9-3.2,0.8c-0.8-0.1-1.8-0.5-2.7-0.7c-1-0.3-2-0.4-3-0.4c-0.9,0-1.8,0.5-2.6,1
		c-0.8,0.6-1.3,1.1-2.2,1.6c-0.3,0.1-0.7,0.3-0.9,0.3c-0.2,0-0.5,0-0.7,0c-0.1,0-0.4-0.1-0.5-0.2c0,0,0,0,0,0c0,0,0,0-0.1-0.1
		c-0.1-0.1-0.1-0.1-0.2-0.2c0,0,0,0,0,0c0,0,0,0,0-0.1c-0.1-0.1-0.1-0.2-0.2-0.2c-0.3-0.4-0.6-0.8-1.1-1.1c-0.9-0.5-2.5-0.4-3.3,0.3
		c-0.3,0.3-0.5,0.7-0.6,1.1c0,0.2-0.1,0.4-0.1,0.6c0,0.1,0,0.1,0,0.2c0-0.1,0,0.2,0,0.2c0,0,0,0.1,0,0.1c0,0.1-0.1,0.2,0,0.1
		c0,0,0,0,0,0.1c0,0,0,0-0.1,0c0,0,0,0,0,0c0,0,0,0,0,0c-0.1,0-0.2,0-0.3,0.1c0.2,0-0.1,0-0.1,0c-0.3,0-0.6,0-0.8,0
		c-2.1,0-4.3-0.1-6.4-0.2c-1.1-0.1-2.3-0.1-3.4-0.2c-0.7-2.2-1.5-4.3-2.2-6.4c-0.6-1.6-1.1-3.1-1.6-4.7c1.8-1.2,3.6-2.3,5.2-3.7
		c1.8-1.5,3.6-3.2,4.7-5.3c1-1.8,1.5-3.8,1.5-5.9c0-2-0.7-3.9-2-5.5c-1.4-1.7-3.5-2.7-5.6-3c-2.3-0.3-4.5,0.3-6.2,1.7
		c-1.7,1.4-2.6,3.6-2.9,5.8c-0.1,1.2,0,2.4,0.2,3.6c0.2,1.3,0.4,2.6,0.7,3.9c0.6,2.5,1.3,5,2.1,7.5c-1.1,0.7-2.2,1.4-3.3,2.1
		c-0.8,0.5-1.6,1.2-2.4,1.6c-0.3,0.2-0.6,0.3-0.9,0.5c-0.8-0.6-1.5-1.2-2.2-1.8c-2.4-1.9-4.6-4-6.9-6.1c-2.7-2.5-5.3-5-8-7.4
		c-1-0.9-2.4,0.5-1.4,1.4c4.5,4.1,8.8,8.4,13.4,12.3c1,0.8,2,1.7,3,2.5c-0.8,0.4-1.7,0.7-2.5,1.1c-1.5,0.8-3.6,1.7-4.2,3.4
		c-0.2,0.5,0.2,1.1,0.7,1.2c4.8,1.3,9.8,2,14.8,2.5c0.2,0.3,0.4,0.5,0.6,0.8c2,2.5,4,5.1,6.1,7.6c0.3,0.3,0.8,0.4,1.2,0.2
		c0.4-0.2,0.5-0.7,0.5-1.1c-0.4-2.3-0.9-4.5-1.6-6.8c2.6,0.2,5.2,0.3,7.8,0.4c1,0,2.1,0.1,3.1-0.1c0.9-0.2,1.6-1.1,1.7-2
		c0-0.2,0.1-0.4,0.1-0.7c0,0,0,0,0-0.1c0,0,0,0,0-0.1c0,0,0.1,0,0.1,0c0.1,0,0.2,0,0.4,0c0.1,0,0.2,0,0.3,0c-0.1,0,0.1,0,0.1,0
		c0,0,0.1,0.1,0.1,0.1c0.1,0,0.1,0.1,0.2,0.1c0.1,0.1,0.1,0.1,0.2,0.2c-0.1-0.1,0.1,0.1,0.1,0.1c0.2,0.2,0.3,0.5,0.5,0.7
		c1.5,1.7,4.1,0.9,5.7-0.2c0.8-0.6,1.3-1.1,2.1-1.5c0.2-0.1,0.6-0.2,0.8-0.2c0.5,0,1,0,1.4,0c1.2,0.2,2.3,0.8,3.6,1
		c1.7,0.3,3.4-0.1,4.9-1C71.2,33.7,70.2,31.9,69.1,32.6z M29.7,6.7c0.7-1.7,2.1-3.1,3.9-3.5c1.9-0.5,4.1,0.1,5.7,1.2
		c1.4,1,2.2,2.5,2.5,4.3c0.1,0.6,0.1,1.8,0,2.5c-0.1,0.9-0.4,1.9-0.8,2.7c-0.9,2.1-2.5,3.6-4.2,5.1c-1.6,1.3-3.2,2.5-5,3.6
		c-1-3-1.8-6-2.3-9.1C29.2,11.2,28.9,8.9,29.7,6.7z M25.3,29.2c0.8-0.4,1.5-1,2.3-1.5c1.1-0.7,2.1-1.4,3.2-2.1
		c1,3.1,2.2,6.1,3.2,9.2c0.1,0.2,0.1,0.4,0.2,0.7c-1-0.1-2-0.2-2.9-0.3c-1.1-1.3-2.2-2.5-3.4-3.7C27.1,30.6,26.2,29.9,25.3,29.2
		C25.3,29.2,25.3,29.2,25.3,29.2z M24.3,34.2c-2.2-0.3-4.4-0.7-6.6-1.2c0,0,0.1-0.1,0.1-0.1c0.8-0.5,1.6-0.9,2.5-1.4
		c1-0.5,2-0.9,3-1.4c0.7,0.5,1.4,1.1,2.1,1.7c1.1,0.9,2,1.9,3,3C27,34.6,25.6,34.5,24.3,34.2z M35.9,40.9c-0.9-1.2-1.9-2.4-2.8-3.6
		c0.6,0.1,1.2,0.1,1.8,0.2C35.3,38.6,35.6,39.7,35.9,40.9z M49.7,35.1L49.7,35.1L49.7,35.1z M49.7,35.1
		C49.7,35.1,49.7,35.1,49.7,35.1C49.7,35.1,49.7,35.1,49.7,35.1C49.7,35,49.7,35,49.7,35.1C49.7,35.1,49.7,35.1,49.7,35.1z"/>
</g>
</svg>
