<?xml version="1.0" encoding="utf-8"?>
<!-- Generator: Adobe Illustrator 21.0.2, SVG Export Plug-In . SVG Version: 6.00 Build 0)  -->
<svg version="1.1" id="Layer_1" xmlns="http://www.w3.org/2000/svg" xmlns:xlink="http://www.w3.org/1999/xlink" x="0px" y="0px"
	 viewBox="0 0 39.8 32.4" style="enable-background:new 0 0 39.8 32.4;" xml:space="preserve">
<style type="text/css">
	.st0{fill:#FFFFFF;}
</style>
<path class="st0" d="M39.8,3.8c-1.1,1.7-2.5,3.1-4.1,4.2c0,0.2,0,0.6,0,1.1c0,2.2-0.3,4.4-1,6.6S33.2,20,31.9,22
	c-1.3,2-2.9,3.8-4.7,5.3c-1.8,1.5-4,2.8-6.5,3.7c-2.5,0.9-5.3,1.4-8.2,1.4C8,32.4,3.8,31.1,0,28.7c0.6,0.1,1.2,0.1,2,0.1
	c3.8,0,7.2-1.2,10.1-3.5c-1.8,0-3.4-0.6-4.8-1.6c-1.4-1.1-2.4-2.4-2.9-4C5,19.7,5.5,19.8,6,19.8c0.7,0,1.4-0.1,2.1-0.3
	c-1.9-0.4-3.5-1.3-4.7-2.8c-1.2-1.5-1.9-3.2-1.9-5.2v-0.1c1.1,0.6,2.4,1,3.7,1c-1.1-0.7-2-1.7-2.7-2.9C2,8.3,1.7,7,1.7,5.6
	c0-1.5,0.4-2.9,1.1-4.1c2,2.5,4.5,4.5,7.4,6c2.9,1.5,6.1,2.3,9.4,2.5c-0.1-0.6-0.2-1.3-0.2-1.9c0-2.3,0.8-4.2,2.4-5.8S25.3,0,27.6,0
	c2.4,0,4.3,0.9,6,2.6c1.8-0.4,3.6-1,5.2-2c-0.6,1.9-1.8,3.4-3.6,4.5C36.7,4.9,38.3,4.5,39.8,3.8z"/>
</svg>
